solid OpenSCAD_Model
  facet normal -0 0 1
    outer loop
      vertex 11.2 108.8 -28.8
      vertex 108.8 1.2 -28.8
      vertex 108.8 108.8 -28.8
    endloop
  endfacet
  facet normal 0 0 1
    outer loop
      vertex 108.8 1.2 -28.8
      vertex 11.2 108.8 -28.8
      vertex 11.2 1.2 -28.8
    endloop
  endfacet
  facet normal 1 -0 0
    outer loop
      vertex 110 0 0
      vertex 110 110 -30
      vertex 110 110 0
    endloop
  endfacet
  facet normal 1 0 0
    outer loop
      vertex 110 110 -30
      vertex 110 0 0
      vertex 110 0 -30
    endloop
  endfacet
  facet normal 0 1 -0
    outer loop
      vertex 110 110 -30
      vertex 10 110 0
      vertex 110 110 0
    endloop
  endfacet
  facet normal 0 1 0
    outer loop
      vertex 10 110 -30
      vertex 10 110 0
      vertex 110 110 -30
    endloop
  endfacet
  facet normal 0 0 -1
    outer loop
      vertex 10 0 -30
      vertex 110 110 -30
      vertex 110 0 -30
    endloop
  endfacet
  facet normal -0 0 -1
    outer loop
      vertex 110 110 -30
      vertex 10 0 -30
      vertex 10 110 -30
    endloop
  endfacet
  facet normal 0 -1 0
    outer loop
      vertex 10 0 0
      vertex 10 0 -30
      vertex 110 0 0
    endloop
  endfacet
  facet normal 0 -1 -0
    outer loop
      vertex 110 0 0
      vertex 10 0 -30
      vertex 110 0 -30
    endloop
  endfacet
  facet normal 0 0 1
    outer loop
      vertex 110 110 0
      vertex 108.8 108.8 0
      vertex 110 0 0
    endloop
  endfacet
  facet normal 0 0 1
    outer loop
      vertex 110 110 0
      vertex 11.2 108.8 0
      vertex 108.8 108.8 0
    endloop
  endfacet
  facet normal 0 0 1
    outer loop
      vertex 11.2 108.8 0
      vertex 10 110 0
      vertex 11.2 1.2 0
    endloop
  endfacet
  facet normal -0 0 1
    outer loop
      vertex 10 110 0
      vertex 11.2 108.8 0
      vertex 110 110 0
    endloop
  endfacet
  facet normal -0 0 1
    outer loop
      vertex 108.8 1.2 0
      vertex 110 0 0
      vertex 108.8 108.8 0
    endloop
  endfacet
  facet normal -0 0 1
    outer loop
      vertex 11.2 1.2 0
      vertex 110 0 0
      vertex 108.8 1.2 0
    endloop
  endfacet
  facet normal 0 0 1
    outer loop
      vertex 11.2 1.2 0
      vertex 10 0 0
      vertex 110 0 0
    endloop
  endfacet
  facet normal 0 0 1
    outer loop
      vertex 10 0 0
      vertex 11.2 1.2 0
      vertex 10 110 0
    endloop
  endfacet
  facet normal 0 1 -0
    outer loop
      vertex 108.8 1.2 -28.8
      vertex 11.2 1.2 0
      vertex 108.8 1.2 0
    endloop
  endfacet
  facet normal 0 1 0
    outer loop
      vertex 11.2 1.2 0
      vertex 108.8 1.2 -28.8
      vertex 11.2 1.2 -28.8
    endloop
  endfacet
  facet normal 0 -1 0
    outer loop
      vertex 11.2 108.8 -28.8
      vertex 108.8 108.8 0
      vertex 11.2 108.8 0
    endloop
  endfacet
  facet normal 0 -1 -0
    outer loop
      vertex 108.8 108.8 0
      vertex 11.2 108.8 -28.8
      vertex 108.8 108.8 -28.8
    endloop
  endfacet
  facet normal -1 0 3.17891e-008
    outer loop
      vertex 10 110 0
      vertex 10 110 -30
      vertex 10 0 0
    endloop
  endfacet
  facet normal -1 0 3.17891e-008
    outer loop
      vertex 10 110 -30
      vertex 10 0 -30
      vertex 10 0 0
    endloop
  endfacet
  facet normal 1 -0 0
    outer loop
      vertex 11.2 1.2 0
      vertex 11.2 108.8 -28.8
      vertex 11.2 108.8 0
    endloop
  endfacet
  facet normal 1 0 0
    outer loop
      vertex 11.2 108.8 -28.8
      vertex 11.2 1.2 0
      vertex 11.2 1.2 -28.8
    endloop
  endfacet
  facet normal -1 0 0
    outer loop
      vertex 108.8 1.2 -28.8
      vertex 108.8 108.8 0
      vertex 108.8 108.8 -28.8
    endloop
  endfacet
  facet normal -1 -0 0
    outer loop
      vertex 108.8 108.8 0
      vertex 108.8 1.2 -28.8
      vertex 108.8 1.2 0
    endloop
  endfacet
endsolid OpenSCAD_Model
