solid OpenSCAD_Model
  facet normal -1 0 0
    outer loop
      vertex -50 52.5 0
      vertex -50 118.464 2
      vertex -50 118.464 0
    endloop
  endfacet
  facet normal -1 -0 0
    outer loop
      vertex -50 118.464 2
      vertex -50 52.5 0
      vertex -50 52.5 2
    endloop
  endfacet
  facet normal 0 -1 0
    outer loop
      vertex -45 47.5 0
      vertex 46.0514 47.5 2
      vertex -45 47.5 2
    endloop
  endfacet
  facet normal 0 -1 -0
    outer loop
      vertex 46.0514 47.5 2
      vertex -45 47.5 0
      vertex 46.0514 47.5 0
    endloop
  endfacet
  facet normal 0 -1 0
    outer loop
      vertex -45.5226 47.5274 0
      vertex -45 47.5274 2
      vertex -45.5226 47.5274 2
    endloop
  endfacet
  facet normal 0 -1 -0
    outer loop
      vertex -45 47.5274 2
      vertex -45.5226 47.5274 0
      vertex -45 47.5274 0
    endloop
  endfacet
  facet normal -0.994522 -0.104527 0
    outer loop
      vertex -49.8907 51.4604 0
      vertex -50 52.5 2
      vertex -50 52.5 0
    endloop
  endfacet
  facet normal -0.994522 -0.104527 0
    outer loop
      vertex -50 52.5 2
      vertex -49.8907 51.4604 0
      vertex -49.8907 51.4604 2
    endloop
  endfacet
  facet normal -0.743145 -0.669131 0
    outer loop
      vertex -48.3457 48.7843 0
      vertex -49.0451 49.5611 2
      vertex -49.0451 49.5611 0
    endloop
  endfacet
  facet normal -0.743145 -0.669131 0
    outer loop
      vertex -49.0451 49.5611 2
      vertex -48.3457 48.7843 0
      vertex -48.3457 48.7843 2
    endloop
  endfacet
  facet normal -0.951056 -0.309019 0
    outer loop
      vertex -49.5677 50.4663 0
      vertex -49.8907 51.4604 2
      vertex -49.8907 51.4604 0
    endloop
  endfacet
  facet normal -0.951056 -0.309019 0
    outer loop
      vertex -49.8907 51.4604 2
      vertex -49.5677 50.4663 0
      vertex -49.5677 50.4663 2
    endloop
  endfacet
  facet normal -0.866026 -0.499999 0
    outer loop
      vertex -49.0451 49.5611 0
      vertex -49.5677 50.4663 2
      vertex -49.5677 50.4663 0
    endloop
  endfacet
  facet normal -0.866026 -0.499999 0
    outer loop
      vertex -49.5677 50.4663 2
      vertex -49.0451 49.5611 0
      vertex -49.0451 49.5611 2
    endloop
  endfacet
  facet normal -0.406737 -0.913545 0
    outer loop
      vertex -47.5 48.1699 0
      vertex -46.5451 47.7447 2
      vertex -47.5 48.1699 2
    endloop
  endfacet
  facet normal -0.406737 -0.913545 -0
    outer loop
      vertex -46.5451 47.7447 2
      vertex -47.5 48.1699 0
      vertex -46.5451 47.7447 0
    endloop
  endfacet
  facet normal -0.207912 -0.978148 0
    outer loop
      vertex -46.5451 47.7447 0
      vertex -45.5226 47.5274 2
      vertex -46.5451 47.7447 2
    endloop
  endfacet
  facet normal -0.207912 -0.978148 -0
    outer loop
      vertex -45.5226 47.5274 2
      vertex -46.5451 47.7447 0
      vertex -45.5226 47.5274 0
    endloop
  endfacet
  facet normal -0.587785 -0.809017 0
    outer loop
      vertex -48.3457 48.7843 0
      vertex -47.5 48.1699 2
      vertex -48.3457 48.7843 2
    endloop
  endfacet
  facet normal -0.587785 -0.809017 -0
    outer loop
      vertex -47.5 48.1699 2
      vertex -48.3457 48.7843 0
      vertex -47.5 48.1699 0
    endloop
  endfacet
  facet normal -1 0 0
    outer loop
      vertex -45 47.5 0
      vertex -45 47.5274 2
      vertex -45 47.5274 0
    endloop
  endfacet
  facet normal -1 -0 0
    outer loop
      vertex -45 47.5274 2
      vertex -45 47.5 0
      vertex -45 47.5 2
    endloop
  endfacet
  facet normal -0.104532 0.994521 0
    outer loop
      vertex -46.0514 122.5 0
      vertex -46.1396 122.491 2
      vertex -46.0514 122.5 2
    endloop
  endfacet
  facet normal -0.104532 0.994521 0
    outer loop
      vertex -46.1396 122.491 2
      vertex -46.0514 122.5 0
      vertex -46.1396 122.491 0
    endloop
  endfacet
  facet normal -0.669131 0.743145 0
    outer loop
      vertex -48.0389 121.645 0
      vertex -48.8157 120.946 2
      vertex -48.0389 121.645 2
    endloop
  endfacet
  facet normal -0.669131 0.743145 0
    outer loop
      vertex -48.8157 120.946 2
      vertex -48.0389 121.645 0
      vertex -48.8157 120.946 0
    endloop
  endfacet
  facet normal -0.30902 0.951055 0
    outer loop
      vertex -46.1396 122.491 0
      vertex -47.1337 122.168 2
      vertex -46.1396 122.491 2
    endloop
  endfacet
  facet normal -0.30902 0.951055 0
    outer loop
      vertex -47.1337 122.168 2
      vertex -46.1396 122.491 0
      vertex -47.1337 122.168 0
    endloop
  endfacet
  facet normal -0.499996 0.866028 0
    outer loop
      vertex -47.1337 122.168 0
      vertex -48.0389 121.645 2
      vertex -47.1337 122.168 2
    endloop
  endfacet
  facet normal -0.499996 0.866028 0
    outer loop
      vertex -48.0389 121.645 2
      vertex -47.1337 122.168 0
      vertex -48.0389 121.645 0
    endloop
  endfacet
  facet normal -0.913545 0.406738 0
    outer loop
      vertex -49.8553 119.145 0
      vertex -49.4301 120.1 2
      vertex -49.4301 120.1 0
    endloop
  endfacet
  facet normal -0.913545 0.406738 0
    outer loop
      vertex -49.4301 120.1 2
      vertex -49.8553 119.145 0
      vertex -49.8553 119.145 2
    endloop
  endfacet
  facet normal -0.978147 0.207913 0
    outer loop
      vertex -50 118.464 0
      vertex -49.8553 119.145 2
      vertex -49.8553 119.145 0
    endloop
  endfacet
  facet normal -0.978147 0.207913 0
    outer loop
      vertex -49.8553 119.145 2
      vertex -50 118.464 0
      vertex -50 118.464 2
    endloop
  endfacet
  facet normal -0.809018 0.587783 0
    outer loop
      vertex -49.4301 120.1 0
      vertex -48.8157 120.946 2
      vertex -48.8157 120.946 0
    endloop
  endfacet
  facet normal -0.809018 0.587783 0
    outer loop
      vertex -48.8157 120.946 2
      vertex -49.4301 120.1 0
      vertex -49.4301 120.1 2
    endloop
  endfacet
  facet normal 0.994521 0.104541 0
    outer loop
      vertex 50 118.551 2
      vertex 49.9907 118.64 0
      vertex 49.9907 118.64 2
    endloop
  endfacet
  facet normal 0.994521 0.104541 0
    outer loop
      vertex 49.9907 118.64 0
      vertex 50 118.551 2
      vertex 50 118.551 0
    endloop
  endfacet
  facet normal 0.743146 0.669129 0
    outer loop
      vertex 49.1451 120.539 2
      vertex 48.4457 121.316 0
      vertex 48.4457 121.316 2
    endloop
  endfacet
  facet normal 0.743146 0.669129 0
    outer loop
      vertex 48.4457 121.316 0
      vertex 49.1451 120.539 2
      vertex 49.1451 120.539 0
    endloop
  endfacet
  facet normal 0.951057 0.309016 0
    outer loop
      vertex 49.9907 118.64 2
      vertex 49.6677 119.634 0
      vertex 49.6677 119.634 2
    endloop
  endfacet
  facet normal 0.951057 0.309016 0
    outer loop
      vertex 49.6677 119.634 0
      vertex 49.9907 118.64 2
      vertex 49.9907 118.64 0
    endloop
  endfacet
  facet normal 0.866025 0.500001 0
    outer loop
      vertex 49.6677 119.634 2
      vertex 49.1451 120.539 0
      vertex 49.1451 120.539 2
    endloop
  endfacet
  facet normal 0.866025 0.500001 0
    outer loop
      vertex 49.1451 120.539 0
      vertex 49.6677 119.634 2
      vertex 49.6677 119.634 0
    endloop
  endfacet
  facet normal 0.406736 0.913546 -0
    outer loop
      vertex 47.6 121.93 0
      vertex 46.6451 122.355 2
      vertex 47.6 121.93 2
    endloop
  endfacet
  facet normal 0.406736 0.913546 0
    outer loop
      vertex 46.6451 122.355 2
      vertex 47.6 121.93 0
      vertex 46.6451 122.355 0
    endloop
  endfacet
  facet normal 0.207908 0.978148 -0
    outer loop
      vertex 46.6451 122.355 0
      vertex 45.9642 122.5 2
      vertex 46.6451 122.355 2
    endloop
  endfacet
  facet normal 0.207908 0.978148 0
    outer loop
      vertex 45.9642 122.5 2
      vertex 46.6451 122.355 0
      vertex 45.9642 122.5 0
    endloop
  endfacet
  facet normal 0.587787 0.809016 -0
    outer loop
      vertex 48.4457 121.316 0
      vertex 47.6 121.93 2
      vertex 48.4457 121.316 2
    endloop
  endfacet
  facet normal 0.587787 0.809016 0
    outer loop
      vertex 47.6 121.93 2
      vertex 48.4457 121.316 0
      vertex 47.6 121.93 0
    endloop
  endfacet
  facet normal 0.104532 -0.994521 0
    outer loop
      vertex 46.0514 47.5 0
      vertex 46.1396 47.5093 2
      vertex 46.0514 47.5 2
    endloop
  endfacet
  facet normal 0.104532 -0.994521 0
    outer loop
      vertex 46.1396 47.5093 2
      vertex 46.0514 47.5 0
      vertex 46.1396 47.5093 0
    endloop
  endfacet
  facet normal 0.669131 -0.743145 0
    outer loop
      vertex 48.0389 48.3549 0
      vertex 48.8157 49.0543 2
      vertex 48.0389 48.3549 2
    endloop
  endfacet
  facet normal 0.669131 -0.743145 0
    outer loop
      vertex 48.8157 49.0543 2
      vertex 48.0389 48.3549 0
      vertex 48.8157 49.0543 0
    endloop
  endfacet
  facet normal 0.309017 -0.951057 0
    outer loop
      vertex 46.1396 47.5093 0
      vertex 47.1337 47.8323 2
      vertex 46.1396 47.5093 2
    endloop
  endfacet
  facet normal 0.309017 -0.951057 0
    outer loop
      vertex 47.1337 47.8323 2
      vertex 46.1396 47.5093 0
      vertex 47.1337 47.8323 0
    endloop
  endfacet
  facet normal 0.500001 -0.866025 0
    outer loop
      vertex 47.1337 47.8323 0
      vertex 48.0389 48.3549 2
      vertex 47.1337 47.8323 2
    endloop
  endfacet
  facet normal 0.500001 -0.866025 0
    outer loop
      vertex 48.0389 48.3549 2
      vertex 47.1337 47.8323 0
      vertex 48.0389 48.3549 0
    endloop
  endfacet
  facet normal 0.913546 -0.406736 0
    outer loop
      vertex 49.4301 49.9 2
      vertex 49.8553 50.8549 0
      vertex 49.8553 50.8549 2
    endloop
  endfacet
  facet normal 0.913546 -0.406736 0
    outer loop
      vertex 49.8553 50.8549 0
      vertex 49.4301 49.9 2
      vertex 49.4301 49.9 0
    endloop
  endfacet
  facet normal 0.978147 -0.207913 0
    outer loop
      vertex 49.8553 50.8549 2
      vertex 50 51.5358 0
      vertex 50 51.5358 2
    endloop
  endfacet
  facet normal 0.978147 -0.207913 0
    outer loop
      vertex 50 51.5358 0
      vertex 49.8553 50.8549 2
      vertex 49.8553 50.8549 0
    endloop
  endfacet
  facet normal 0.809016 -0.587787 0
    outer loop
      vertex 48.8157 49.0543 2
      vertex 49.4301 49.9 0
      vertex 49.4301 49.9 2
    endloop
  endfacet
  facet normal 0.809016 -0.587787 0
    outer loop
      vertex 49.4301 49.9 0
      vertex 48.8157 49.0543 2
      vertex 48.8157 49.0543 0
    endloop
  endfacet
  facet normal 0 0 1
    outer loop
      vertex -43 49.5274 2
      vertex -43.5226 49.5274 2
      vertex -43 49.5 2
    endloop
  endfacet
  facet normal 0 0 1
    outer loop
      vertex 47.6677 117.634 2
      vertex 50 118.551 2
      vertex 49.9907 118.64 2
    endloop
  endfacet
  facet normal 0 0 1
    outer loop
      vertex 50 118.551 2
      vertex 48 116.551 2
      vertex 50 51.5358 2
    endloop
  endfacet
  facet normal 0 0 1
    outer loop
      vertex 47.6677 117.634 2
      vertex 49.9907 118.64 2
      vertex 49.6677 119.634 2
    endloop
  endfacet
  facet normal 0 0 1
    outer loop
      vertex 50 51.5358 2
      vertex 48 116.551 2
      vertex 48 53.5358 2
    endloop
  endfacet
  facet normal 0 0 1
    outer loop
      vertex 47.1451 118.539 2
      vertex 49.6677 119.634 2
      vertex 49.1451 120.539 2
    endloop
  endfacet
  facet normal -0 0 1
    outer loop
      vertex 47.8553 52.8549 2
      vertex 50 51.5358 2
      vertex 48 53.5358 2
    endloop
  endfacet
  facet normal 0 0 1
    outer loop
      vertex 46.4457 119.316 2
      vertex 49.1451 120.539 2
      vertex 48.4457 121.316 2
    endloop
  endfacet
  facet normal -0 0 1
    outer loop
      vertex 47.4301 51.9 2
      vertex 50 51.5358 2
      vertex 47.8553 52.8549 2
    endloop
  endfacet
  facet normal 0 0 1
    outer loop
      vertex 50 51.5358 2
      vertex 47.4301 51.9 2
      vertex 49.8553 50.8549 2
    endloop
  endfacet
  facet normal 0 0 1
    outer loop
      vertex 50 118.551 2
      vertex 47.9907 116.64 2
      vertex 48 116.551 2
    endloop
  endfacet
  facet normal 0 0 1
    outer loop
      vertex 50 118.551 2
      vertex 47.6677 117.634 2
      vertex 47.9907 116.64 2
    endloop
  endfacet
  facet normal 0 0 1
    outer loop
      vertex 46.4457 119.316 2
      vertex 48.4457 121.316 2
      vertex 47.6 121.93 2
    endloop
  endfacet
  facet normal 0 0 1
    outer loop
      vertex 49.6677 119.634 2
      vertex 47.1451 118.539 2
      vertex 47.6677 117.634 2
    endloop
  endfacet
  facet normal 0 0 1
    outer loop
      vertex 45.6 119.93 2
      vertex 47.6 121.93 2
      vertex 46.6451 122.355 2
    endloop
  endfacet
  facet normal 0 0 1
    outer loop
      vertex 49.1451 120.539 2
      vertex 46.4457 119.316 2
      vertex 47.1451 118.539 2
    endloop
  endfacet
  facet normal 0 0 1
    outer loop
      vertex 45.6 119.93 2
      vertex 46.6451 122.355 2
      vertex 45.9642 122.5 2
    endloop
  endfacet
  facet normal 0 0 1
    outer loop
      vertex 47.6 121.93 2
      vertex 45.6 119.93 2
      vertex 46.4457 119.316 2
    endloop
  endfacet
  facet normal 0 0 1
    outer loop
      vertex 45.9642 122.5 2
      vertex 44.6451 120.355 2
      vertex 45.6 119.93 2
    endloop
  endfacet
  facet normal 0 0 1
    outer loop
      vertex 45.9642 122.5 2
      vertex 43.9642 120.5 2
      vertex 44.6451 120.355 2
    endloop
  endfacet
  facet normal 0 0 1
    outer loop
      vertex 45.9642 122.5 2
      vertex -44.0514 120.5 2
      vertex 43.9642 120.5 2
    endloop
  endfacet
  facet normal -0 0 1
    outer loop
      vertex -46.0514 122.5 2
      vertex -44.0514 120.5 2
      vertex 45.9642 122.5 2
    endloop
  endfacet
  facet normal 0 0 1
    outer loop
      vertex -46.0514 122.5 2
      vertex -44.1396 120.491 2
      vertex -44.0514 120.5 2
    endloop
  endfacet
  facet normal 0 0 1
    outer loop
      vertex -46.0514 122.5 2
      vertex -45.1337 120.168 2
      vertex -44.1396 120.491 2
    endloop
  endfacet
  facet normal -0 0 1
    outer loop
      vertex -46.1396 122.491 2
      vertex -45.1337 120.168 2
      vertex -46.0514 122.5 2
    endloop
  endfacet
  facet normal -0 0 1
    outer loop
      vertex -47.1337 122.168 2
      vertex -45.1337 120.168 2
      vertex -46.1396 122.491 2
    endloop
  endfacet
  facet normal 0 0 1
    outer loop
      vertex -45.1337 120.168 2
      vertex -47.1337 122.168 2
      vertex -46.0389 119.645 2
    endloop
  endfacet
  facet normal -0 0 1
    outer loop
      vertex -48.0389 121.645 2
      vertex -46.0389 119.645 2
      vertex -47.1337 122.168 2
    endloop
  endfacet
  facet normal 0 0 1
    outer loop
      vertex -46.0389 119.645 2
      vertex -48.0389 121.645 2
      vertex -46.8157 118.946 2
    endloop
  endfacet
  facet normal -0 0 1
    outer loop
      vertex -48.8157 120.946 2
      vertex -46.8157 118.946 2
      vertex -48.0389 121.645 2
    endloop
  endfacet
  facet normal -0 0 1
    outer loop
      vertex -49.4301 120.1 2
      vertex -46.8157 118.946 2
      vertex -48.8157 120.946 2
    endloop
  endfacet
  facet normal -0 0 1
    outer loop
      vertex -49.8553 119.145 2
      vertex -47.4301 118.1 2
      vertex -49.4301 120.1 2
    endloop
  endfacet
  facet normal 0 0 1
    outer loop
      vertex -46.8157 118.946 2
      vertex -49.4301 120.1 2
      vertex -47.4301 118.1 2
    endloop
  endfacet
  facet normal 0 0 1
    outer loop
      vertex 49.8553 50.8549 2
      vertex 47.4301 51.9 2
      vertex 49.4301 49.9 2
    endloop
  endfacet
  facet normal -0 0 1
    outer loop
      vertex 46.8157 51.0543 2
      vertex 49.4301 49.9 2
      vertex 47.4301 51.9 2
    endloop
  endfacet
  facet normal 0 0 1
    outer loop
      vertex 49.4301 49.9 2
      vertex 46.8157 51.0543 2
      vertex 48.8157 49.0543 2
    endloop
  endfacet
  facet normal 0 0 1
    outer loop
      vertex 48.8157 49.0543 2
      vertex 46.8157 51.0543 2
      vertex 48.0389 48.3549 2
    endloop
  endfacet
  facet normal -0 0 1
    outer loop
      vertex 46.0389 50.3549 2
      vertex 48.0389 48.3549 2
      vertex 46.8157 51.0543 2
    endloop
  endfacet
  facet normal 0 0 1
    outer loop
      vertex 48.0389 48.3549 2
      vertex 46.0389 50.3549 2
      vertex 47.1337 47.8323 2
    endloop
  endfacet
  facet normal -0 0 1
    outer loop
      vertex 45.1337 49.8323 2
      vertex 47.1337 47.8323 2
      vertex 46.0389 50.3549 2
    endloop
  endfacet
  facet normal 0 0 1
    outer loop
      vertex 47.1337 47.8323 2
      vertex 45.1337 49.8323 2
      vertex 46.1396 47.5093 2
    endloop
  endfacet
  facet normal 0 0 1
    outer loop
      vertex 46.1396 47.5093 2
      vertex 45.1337 49.8323 2
      vertex 46.0514 47.5 2
    endloop
  endfacet
  facet normal -0 0 1
    outer loop
      vertex 44.1396 49.5093 2
      vertex 46.0514 47.5 2
      vertex 45.1337 49.8323 2
    endloop
  endfacet
  facet normal -0 0 1
    outer loop
      vertex 44.0514 49.5 2
      vertex 46.0514 47.5 2
      vertex 44.1396 49.5093 2
    endloop
  endfacet
  facet normal -0 0 1
    outer loop
      vertex -43 49.5 2
      vertex 46.0514 47.5 2
      vertex 44.0514 49.5 2
    endloop
  endfacet
  facet normal 0 0 1
    outer loop
      vertex -45 47.5274 2
      vertex -43.5226 49.5274 2
      vertex -44.5451 49.7447 2
    endloop
  endfacet
  facet normal 0 0 1
    outer loop
      vertex -45 47.5274 2
      vertex -43 49.5 2
      vertex -43.5226 49.5274 2
    endloop
  endfacet
  facet normal 0 0 1
    outer loop
      vertex -45 47.5 2
      vertex -43 49.5 2
      vertex -45 47.5274 2
    endloop
  endfacet
  facet normal 0 0 1
    outer loop
      vertex -43 49.5 2
      vertex -45 47.5 2
      vertex 46.0514 47.5 2
    endloop
  endfacet
  facet normal 0 0 1
    outer loop
      vertex -45.5226 47.5274 2
      vertex -44.5451 49.7447 2
      vertex -45.5 50.1699 2
    endloop
  endfacet
  facet normal 0 0 1
    outer loop
      vertex -44.5451 49.7447 2
      vertex -45.5226 47.5274 2
      vertex -45 47.5274 2
    endloop
  endfacet
  facet normal 0 0 1
    outer loop
      vertex -47.5 48.1699 2
      vertex -45.5 50.1699 2
      vertex -46.3457 50.7843 2
    endloop
  endfacet
  facet normal 0 0 1
    outer loop
      vertex -45.5 50.1699 2
      vertex -46.5451 47.7447 2
      vertex -45.5226 47.5274 2
    endloop
  endfacet
  facet normal 0 0 1
    outer loop
      vertex -49.0451 49.5611 2
      vertex -46.3457 50.7843 2
      vertex -47.0451 51.5611 2
    endloop
  endfacet
  facet normal 0 0 1
    outer loop
      vertex -45.5 50.1699 2
      vertex -47.5 48.1699 2
      vertex -46.5451 47.7447 2
    endloop
  endfacet
  facet normal 0 0 1
    outer loop
      vertex -49.5677 50.4663 2
      vertex -47.0451 51.5611 2
      vertex -47.5677 52.4663 2
    endloop
  endfacet
  facet normal -0 0 1
    outer loop
      vertex -50 52.5 2
      vertex -47.5677 52.4663 2
      vertex -47.8907 53.4604 2
    endloop
  endfacet
  facet normal 0 0 1
    outer loop
      vertex -50 52.5 2
      vertex -47.8907 53.4604 2
      vertex -48 54.5 2
    endloop
  endfacet
  facet normal 0 0 1
    outer loop
      vertex -46.3457 50.7843 2
      vertex -48.3457 48.7843 2
      vertex -47.5 48.1699 2
    endloop
  endfacet
  facet normal 0 0 1
    outer loop
      vertex -48 116.464 2
      vertex -50 118.464 2
      vertex -48 54.5 2
    endloop
  endfacet
  facet normal -0 0 1
    outer loop
      vertex -50 118.464 2
      vertex -47.4301 118.1 2
      vertex -49.8553 119.145 2
    endloop
  endfacet
  facet normal 0 0 1
    outer loop
      vertex -47.5677 52.4663 2
      vertex -50 52.5 2
      vertex -49.8907 51.4604 2
    endloop
  endfacet
  facet normal 0 0 1
    outer loop
      vertex -47.4301 118.1 2
      vertex -50 118.464 2
      vertex -47.8553 117.145 2
    endloop
  endfacet
  facet normal 0 0 1
    outer loop
      vertex -46.3457 50.7843 2
      vertex -49.0451 49.5611 2
      vertex -48.3457 48.7843 2
    endloop
  endfacet
  facet normal 0 0 1
    outer loop
      vertex -47.8553 117.145 2
      vertex -50 118.464 2
      vertex -48 116.464 2
    endloop
  endfacet
  facet normal 0 0 1
    outer loop
      vertex -47.0451 51.5611 2
      vertex -49.5677 50.4663 2
      vertex -49.0451 49.5611 2
    endloop
  endfacet
  facet normal 0 0 1
    outer loop
      vertex -48 54.5 2
      vertex -50 118.464 2
      vertex -50 52.5 2
    endloop
  endfacet
  facet normal 0 0 1
    outer loop
      vertex -47.5677 52.4663 2
      vertex -49.8907 51.4604 2
      vertex -49.5677 50.4663 2
    endloop
  endfacet
  facet normal 1 -0 0
    outer loop
      vertex 50 51.5358 2
      vertex 50 118.551 0
      vertex 50 118.551 2
    endloop
  endfacet
  facet normal 1 0 0
    outer loop
      vertex 50 118.551 0
      vertex 50 51.5358 2
      vertex 50 51.5358 0
    endloop
  endfacet
  facet normal 0 0 -1
    outer loop
      vertex -41.5729 114.737 0
      vertex 41.5729 114.737 0
      vertex -41.5729 55.2634 0
    endloop
  endfacet
  facet normal 0 0 -1
    outer loop
      vertex 41.5729 114.737 0
      vertex -41.5729 114.737 0
      vertex -41 116.5 0
    endloop
  endfacet
  facet normal 0 0 -1
    outer loop
      vertex -43.0729 56.3532 0
      vertex -41.5729 114.737 0
      vertex -41.5729 55.2634 0
    endloop
  endfacet
  facet normal 0 0 -1
    outer loop
      vertex -43.0729 56.3532 0
      vertex -43.0729 113.647 0
      vertex -41.5729 114.737 0
    endloop
  endfacet
  facet normal 0 0 -1
    outer loop
      vertex -44.9271 56.3532 0
      vertex -43.0729 113.647 0
      vertex -43.0729 56.3532 0
    endloop
  endfacet
  facet normal 0 0 -1
    outer loop
      vertex -44.9271 56.3532 0
      vertex -44.9271 113.647 0
      vertex -43.0729 113.647 0
    endloop
  endfacet
  facet normal 0 0 -1
    outer loop
      vertex -46.4271 55.2634 0
      vertex -44.9271 113.647 0
      vertex -44.9271 56.3532 0
    endloop
  endfacet
  facet normal 0 0 -1
    outer loop
      vertex -46.4271 55.2634 0
      vertex -46.4271 114.737 0
      vertex -44.9271 113.647 0
    endloop
  endfacet
  facet normal 0 0 -1
    outer loop
      vertex -50 52.5 0
      vertex -46.4271 55.2634 0
      vertex -47 53.5 0
    endloop
  endfacet
  facet normal -0 0 -1
    outer loop
      vertex -46.4271 55.2634 0
      vertex -50 52.5 0
      vertex -46.4271 114.737 0
    endloop
  endfacet
  facet normal 0 0 -1
    outer loop
      vertex 50 51.5358 0
      vertex 46.4271 114.737 0
      vertex 50 118.551 0
    endloop
  endfacet
  facet normal 0 0 -1
    outer loop
      vertex 50 118.551 0
      vertex 46.4271 114.737 0
      vertex 47 116.5 0
    endloop
  endfacet
  facet normal 0 0 -1
    outer loop
      vertex 44.9271 56.3532 0
      vertex 46.4271 114.737 0
      vertex 46.4271 55.2634 0
    endloop
  endfacet
  facet normal 0 0 -1
    outer loop
      vertex 44.9271 56.3532 0
      vertex 44.9271 113.647 0
      vertex 46.4271 114.737 0
    endloop
  endfacet
  facet normal 0 0 -1
    outer loop
      vertex 43.0729 56.3532 0
      vertex 44.9271 113.647 0
      vertex 44.9271 56.3532 0
    endloop
  endfacet
  facet normal 0 0 -1
    outer loop
      vertex 43.0729 56.3532 0
      vertex 43.0729 113.647 0
      vertex 44.9271 113.647 0
    endloop
  endfacet
  facet normal 0 0 -1
    outer loop
      vertex 41.5729 55.2634 0
      vertex 43.0729 113.647 0
      vertex 43.0729 56.3532 0
    endloop
  endfacet
  facet normal 0 0 -1
    outer loop
      vertex 41.5729 55.2634 0
      vertex 41.5729 114.737 0
      vertex 43.0729 113.647 0
    endloop
  endfacet
  facet normal 0 0 -1
    outer loop
      vertex -41 53.5 0
      vertex 41.5729 55.2634 0
      vertex 41 53.5 0
    endloop
  endfacet
  facet normal 0 0 -1
    outer loop
      vertex -41.5729 55.2634 0
      vertex 41.5729 55.2634 0
      vertex -41 53.5 0
    endloop
  endfacet
  facet normal 0 0 -1
    outer loop
      vertex 50 51.5358 0
      vertex 46.4271 51.7366 0
      vertex 47 53.5 0
    endloop
  endfacet
  facet normal 0 0 -1
    outer loop
      vertex 44.9271 50.6468 0
      vertex 47.1337 47.8323 0
      vertex 46.1396 47.5093 0
    endloop
  endfacet
  facet normal 0 0 -1
    outer loop
      vertex 44.9271 50.6468 0
      vertex 46.1396 47.5093 0
      vertex 46.0514 47.5 0
    endloop
  endfacet
  facet normal 0 0 -1
    outer loop
      vertex 48.0389 48.3549 0
      vertex 44.9271 50.6468 0
      vertex 46.4271 51.7366 0
    endloop
  endfacet
  facet normal 0 0 -1
    outer loop
      vertex 46.0514 47.5 0
      vertex 43.0729 50.6468 0
      vertex 44.9271 50.6468 0
    endloop
  endfacet
  facet normal 0 0 -1
    outer loop
      vertex 46.0514 47.5 0
      vertex 41.5729 51.7366 0
      vertex 43.0729 50.6468 0
    endloop
  endfacet
  facet normal 0 0 -1
    outer loop
      vertex 41.5729 55.2634 0
      vertex -41.5729 55.2634 0
      vertex 41.5729 114.737 0
    endloop
  endfacet
  facet normal 0 0 -1
    outer loop
      vertex 41.5729 51.7366 0
      vertex -41 53.5 0
      vertex 41 53.5 0
    endloop
  endfacet
  facet normal 0 0 -1
    outer loop
      vertex -45 47.5 0
      vertex 41.5729 51.7366 0
      vertex 46.0514 47.5 0
    endloop
  endfacet
  facet normal 0 0 -1
    outer loop
      vertex 41.5729 51.7366 0
      vertex -41.5729 51.7366 0
      vertex -41 53.5 0
    endloop
  endfacet
  facet normal -0 0 -1
    outer loop
      vertex 41.5729 51.7366 0
      vertex -45 47.5 0
      vertex -41.5729 51.7366 0
    endloop
  endfacet
  facet normal 0 0 -1
    outer loop
      vertex -41.5729 51.7366 0
      vertex -45 47.5 0
      vertex -43.0729 50.6468 0
    endloop
  endfacet
  facet normal 0 0 -1
    outer loop
      vertex -43.0729 50.6468 0
      vertex -45 47.5 0
      vertex -45 47.5274 0
    endloop
  endfacet
  facet normal -0 0 -1
    outer loop
      vertex -43.0729 50.6468 0
      vertex -45 47.5274 0
      vertex -44.9271 50.6468 0
    endloop
  endfacet
  facet normal 0 0 -1
    outer loop
      vertex -45.5226 47.5274 0
      vertex -44.9271 50.6468 0
      vertex -45 47.5274 0
    endloop
  endfacet
  facet normal 0 0 -1
    outer loop
      vertex -46.5451 47.7447 0
      vertex -44.9271 50.6468 0
      vertex -45.5226 47.5274 0
    endloop
  endfacet
  facet normal 0 0 -1
    outer loop
      vertex -47.5 48.1699 0
      vertex -44.9271 50.6468 0
      vertex -46.5451 47.7447 0
    endloop
  endfacet
  facet normal -0 0 -1
    outer loop
      vertex -44.9271 50.6468 0
      vertex -47.5 48.1699 0
      vertex -46.4271 51.7366 0
    endloop
  endfacet
  facet normal 0 0 -1
    outer loop
      vertex -50 118.464 0
      vertex -46.4271 114.737 0
      vertex -50 52.5 0
    endloop
  endfacet
  facet normal 0 0 -1
    outer loop
      vertex -48.3457 48.7843 0
      vertex -46.4271 51.7366 0
      vertex -47.5 48.1699 0
    endloop
  endfacet
  facet normal 0 0 -1
    outer loop
      vertex -49.0451 49.5611 0
      vertex -46.4271 51.7366 0
      vertex -48.3457 48.7843 0
    endloop
  endfacet
  facet normal 0 0 -1
    outer loop
      vertex -46.4271 114.737 0
      vertex -50 118.464 0
      vertex -47 116.5 0
    endloop
  endfacet
  facet normal 0 0 -1
    outer loop
      vertex -49.5677 50.4663 0
      vertex -46.4271 51.7366 0
      vertex -49.0451 49.5611 0
    endloop
  endfacet
  facet normal 0 -0 -1
    outer loop
      vertex -49.8553 119.145 0
      vertex -47 116.5 0
      vertex -50 118.464 0
    endloop
  endfacet
  facet normal 0 0 -1
    outer loop
      vertex -49.8907 51.4604 0
      vertex -46.4271 51.7366 0
      vertex -49.5677 50.4663 0
    endloop
  endfacet
  facet normal 0 0 -1
    outer loop
      vertex -47 116.5 0
      vertex -48.0389 121.645 0
      vertex -47.1337 122.168 0
    endloop
  endfacet
  facet normal -0 0 -1
    outer loop
      vertex -46.4271 51.7366 0
      vertex -49.8907 51.4604 0
      vertex -47 53.5 0
    endloop
  endfacet
  facet normal 0 0 -1
    outer loop
      vertex -47 116.5 0
      vertex -48.8157 120.946 0
      vertex -48.0389 121.645 0
    endloop
  endfacet
  facet normal 0 0 -1
    outer loop
      vertex -47 53.5 0
      vertex -49.8907 51.4604 0
      vertex -50 52.5 0
    endloop
  endfacet
  facet normal 0 0 -1
    outer loop
      vertex -47 116.5 0
      vertex -49.4301 120.1 0
      vertex -48.8157 120.946 0
    endloop
  endfacet
  facet normal 0 0 -1
    outer loop
      vertex -47 116.5 0
      vertex -49.8553 119.145 0
      vertex -49.4301 120.1 0
    endloop
  endfacet
  facet normal 0 0 -1
    outer loop
      vertex 46.4271 114.737 0
      vertex 50 51.5358 0
      vertex 46.4271 55.2634 0
    endloop
  endfacet
  facet normal 0 0 -1
    outer loop
      vertex 46.4271 51.7366 0
      vertex 50 51.5358 0
      vertex 49.8553 50.8549 0
    endloop
  endfacet
  facet normal 0 0 -1
    outer loop
      vertex 46.4271 55.2634 0
      vertex 50 51.5358 0
      vertex 47 53.5 0
    endloop
  endfacet
  facet normal 0 0 -1
    outer loop
      vertex 46.4271 51.7366 0
      vertex 49.8553 50.8549 0
      vertex 49.4301 49.9 0
    endloop
  endfacet
  facet normal 0 0 -1
    outer loop
      vertex 46.4271 118.263 0
      vertex 50 118.551 0
      vertex 47 116.5 0
    endloop
  endfacet
  facet normal 0 0 -1
    outer loop
      vertex 46.4271 51.7366 0
      vertex 49.4301 49.9 0
      vertex 48.8157 49.0543 0
    endloop
  endfacet
  facet normal -0 0 -1
    outer loop
      vertex 50 118.551 0
      vertex 46.4271 118.263 0
      vertex 49.9907 118.64 0
    endloop
  endfacet
  facet normal 0 0 -1
    outer loop
      vertex 46.4271 51.7366 0
      vertex 48.8157 49.0543 0
      vertex 48.0389 48.3549 0
    endloop
  endfacet
  facet normal -0 0 -1
    outer loop
      vertex 49.9907 118.64 0
      vertex 46.4271 118.263 0
      vertex 49.6677 119.634 0
    endloop
  endfacet
  facet normal 0 0 -1
    outer loop
      vertex 44.9271 50.6468 0
      vertex 48.0389 48.3549 0
      vertex 47.1337 47.8323 0
    endloop
  endfacet
  facet normal -0 0 -1
    outer loop
      vertex 49.6677 119.634 0
      vertex 46.4271 118.263 0
      vertex 49.1451 120.539 0
    endloop
  endfacet
  facet normal -0 0 -1
    outer loop
      vertex 49.1451 120.539 0
      vertex 46.4271 118.263 0
      vertex 48.4457 121.316 0
    endloop
  endfacet
  facet normal -0 0 -1
    outer loop
      vertex 48.4457 121.316 0
      vertex 46.4271 118.263 0
      vertex 47.6 121.93 0
    endloop
  endfacet
  facet normal 0 0 -1
    outer loop
      vertex 44.9271 119.353 0
      vertex 47.6 121.93 0
      vertex 46.4271 118.263 0
    endloop
  endfacet
  facet normal -0 0 -1
    outer loop
      vertex 47.6 121.93 0
      vertex 44.9271 119.353 0
      vertex 46.6451 122.355 0
    endloop
  endfacet
  facet normal -0 0 -1
    outer loop
      vertex 46.6451 122.355 0
      vertex 44.9271 119.353 0
      vertex 45.9642 122.5 0
    endloop
  endfacet
  facet normal 0 0 -1
    outer loop
      vertex 43.0729 119.353 0
      vertex 45.9642 122.5 0
      vertex 44.9271 119.353 0
    endloop
  endfacet
  facet normal 0 0 -1
    outer loop
      vertex 41.5729 118.263 0
      vertex 45.9642 122.5 0
      vertex 43.0729 119.353 0
    endloop
  endfacet
  facet normal 0 0 -1
    outer loop
      vertex 41.5729 114.737 0
      vertex -41 116.5 0
      vertex 41 116.5 0
    endloop
  endfacet
  facet normal 0 0 -1
    outer loop
      vertex 41 116.5 0
      vertex -41 116.5 0
      vertex 41.5729 118.263 0
    endloop
  endfacet
  facet normal 0 0 -1
    outer loop
      vertex -41.5729 118.263 0
      vertex 41.5729 118.263 0
      vertex -41 116.5 0
    endloop
  endfacet
  facet normal 0 0 -1
    outer loop
      vertex 41.5729 118.263 0
      vertex -41.5729 118.263 0
      vertex 45.9642 122.5 0
    endloop
  endfacet
  facet normal 0 0 -1
    outer loop
      vertex -46.0514 122.5 0
      vertex -41.5729 118.263 0
      vertex -43.0729 119.353 0
    endloop
  endfacet
  facet normal 0 0 -1
    outer loop
      vertex -46.0514 122.5 0
      vertex -43.0729 119.353 0
      vertex -44.9271 119.353 0
    endloop
  endfacet
  facet normal 0 0 -1
    outer loop
      vertex -41.5729 118.263 0
      vertex -46.0514 122.5 0
      vertex 45.9642 122.5 0
    endloop
  endfacet
  facet normal 0 0 -1
    outer loop
      vertex -44.9271 119.353 0
      vertex -46.1396 122.491 0
      vertex -46.0514 122.5 0
    endloop
  endfacet
  facet normal 0 0 -1
    outer loop
      vertex -47.1337 122.168 0
      vertex -44.9271 119.353 0
      vertex -46.4271 118.263 0
    endloop
  endfacet
  facet normal 0 0 -1
    outer loop
      vertex -47.1337 122.168 0
      vertex -46.4271 118.263 0
      vertex -47 116.5 0
    endloop
  endfacet
  facet normal 0 0 -1
    outer loop
      vertex -44.9271 119.353 0
      vertex -47.1337 122.168 0
      vertex -46.1396 122.491 0
    endloop
  endfacet
  facet normal 0 1 -0
    outer loop
      vertex 45.9642 122.5 0
      vertex -46.0514 122.5 2
      vertex 45.9642 122.5 2
    endloop
  endfacet
  facet normal 0 1 0
    outer loop
      vertex -46.0514 122.5 2
      vertex 45.9642 122.5 0
      vertex -46.0514 122.5 0
    endloop
  endfacet
  facet normal -1 0 0
    outer loop
      vertex -48 54.5 2
      vertex -48 116.464 4
      vertex -48 116.464 2
    endloop
  endfacet
  facet normal -1 -0 0
    outer loop
      vertex -48 116.464 4
      vertex -48 54.5 2
      vertex -48 54.5 4
    endloop
  endfacet
  facet normal 0 -1 0
    outer loop
      vertex -43 49.5 2
      vertex 44.0514 49.5 4
      vertex -43 49.5 4
    endloop
  endfacet
  facet normal 0 -1 -0
    outer loop
      vertex 44.0514 49.5 4
      vertex -43 49.5 2
      vertex 44.0514 49.5 2
    endloop
  endfacet
  facet normal 0 -1 0
    outer loop
      vertex -43.5226 49.5274 2
      vertex -43 49.5274 4
      vertex -43.5226 49.5274 4
    endloop
  endfacet
  facet normal 0 -1 -0
    outer loop
      vertex -43 49.5274 4
      vertex -43.5226 49.5274 2
      vertex -43 49.5274 2
    endloop
  endfacet
  facet normal -0.994522 -0.104527 0
    outer loop
      vertex -47.8907 53.4604 2
      vertex -48 54.5 4
      vertex -48 54.5 2
    endloop
  endfacet
  facet normal -0.994522 -0.104527 0
    outer loop
      vertex -48 54.5 4
      vertex -47.8907 53.4604 2
      vertex -47.8907 53.4604 4
    endloop
  endfacet
  facet normal -0.743145 -0.669131 0
    outer loop
      vertex -46.3457 50.7843 2
      vertex -47.0451 51.5611 4
      vertex -47.0451 51.5611 2
    endloop
  endfacet
  facet normal -0.743145 -0.669131 0
    outer loop
      vertex -47.0451 51.5611 4
      vertex -46.3457 50.7843 2
      vertex -46.3457 50.7843 4
    endloop
  endfacet
  facet normal -0.951056 -0.309019 0
    outer loop
      vertex -47.5677 52.4663 2
      vertex -47.8907 53.4604 4
      vertex -47.8907 53.4604 2
    endloop
  endfacet
  facet normal -0.951056 -0.309019 0
    outer loop
      vertex -47.8907 53.4604 4
      vertex -47.5677 52.4663 2
      vertex -47.5677 52.4663 4
    endloop
  endfacet
  facet normal -0.866026 -0.499999 0
    outer loop
      vertex -47.0451 51.5611 2
      vertex -47.5677 52.4663 4
      vertex -47.5677 52.4663 2
    endloop
  endfacet
  facet normal -0.866026 -0.499999 0
    outer loop
      vertex -47.5677 52.4663 4
      vertex -47.0451 51.5611 2
      vertex -47.0451 51.5611 4
    endloop
  endfacet
  facet normal -0.406737 -0.913545 0
    outer loop
      vertex -45.5 50.1699 2
      vertex -44.5451 49.7447 4
      vertex -45.5 50.1699 4
    endloop
  endfacet
  facet normal -0.406737 -0.913545 -0
    outer loop
      vertex -44.5451 49.7447 4
      vertex -45.5 50.1699 2
      vertex -44.5451 49.7447 2
    endloop
  endfacet
  facet normal -0.207912 -0.978148 0
    outer loop
      vertex -44.5451 49.7447 2
      vertex -43.5226 49.5274 4
      vertex -44.5451 49.7447 4
    endloop
  endfacet
  facet normal -0.207912 -0.978148 -0
    outer loop
      vertex -43.5226 49.5274 4
      vertex -44.5451 49.7447 2
      vertex -43.5226 49.5274 2
    endloop
  endfacet
  facet normal -0.587785 -0.809017 0
    outer loop
      vertex -46.3457 50.7843 2
      vertex -45.5 50.1699 4
      vertex -46.3457 50.7843 4
    endloop
  endfacet
  facet normal -0.587785 -0.809017 -0
    outer loop
      vertex -45.5 50.1699 4
      vertex -46.3457 50.7843 2
      vertex -45.5 50.1699 2
    endloop
  endfacet
  facet normal -1 0 0
    outer loop
      vertex -43 49.5 2
      vertex -43 49.5274 4
      vertex -43 49.5274 2
    endloop
  endfacet
  facet normal -1 -0 0
    outer loop
      vertex -43 49.5274 4
      vertex -43 49.5 2
      vertex -43 49.5 4
    endloop
  endfacet
  facet normal -0.104532 0.994521 0
    outer loop
      vertex -44.0514 120.5 2
      vertex -44.1396 120.491 4
      vertex -44.0514 120.5 4
    endloop
  endfacet
  facet normal -0.104532 0.994521 0
    outer loop
      vertex -44.1396 120.491 4
      vertex -44.0514 120.5 2
      vertex -44.1396 120.491 2
    endloop
  endfacet
  facet normal -0.669131 0.743145 0
    outer loop
      vertex -46.0389 119.645 2
      vertex -46.8157 118.946 4
      vertex -46.0389 119.645 4
    endloop
  endfacet
  facet normal -0.669131 0.743145 0
    outer loop
      vertex -46.8157 118.946 4
      vertex -46.0389 119.645 2
      vertex -46.8157 118.946 2
    endloop
  endfacet
  facet normal -0.30902 0.951055 0
    outer loop
      vertex -44.1396 120.491 2
      vertex -45.1337 120.168 4
      vertex -44.1396 120.491 4
    endloop
  endfacet
  facet normal -0.30902 0.951055 0
    outer loop
      vertex -45.1337 120.168 4
      vertex -44.1396 120.491 2
      vertex -45.1337 120.168 2
    endloop
  endfacet
  facet normal -0.499996 0.866028 0
    outer loop
      vertex -45.1337 120.168 2
      vertex -46.0389 119.645 4
      vertex -45.1337 120.168 4
    endloop
  endfacet
  facet normal -0.499996 0.866028 0
    outer loop
      vertex -46.0389 119.645 4
      vertex -45.1337 120.168 2
      vertex -46.0389 119.645 2
    endloop
  endfacet
  facet normal -0.913545 0.406738 0
    outer loop
      vertex -47.8553 117.145 2
      vertex -47.4301 118.1 4
      vertex -47.4301 118.1 2
    endloop
  endfacet
  facet normal -0.913545 0.406738 0
    outer loop
      vertex -47.4301 118.1 4
      vertex -47.8553 117.145 2
      vertex -47.8553 117.145 4
    endloop
  endfacet
  facet normal -0.978147 0.207913 0
    outer loop
      vertex -48 116.464 2
      vertex -47.8553 117.145 4
      vertex -47.8553 117.145 2
    endloop
  endfacet
  facet normal -0.978147 0.207913 0
    outer loop
      vertex -47.8553 117.145 4
      vertex -48 116.464 2
      vertex -48 116.464 4
    endloop
  endfacet
  facet normal -0.809018 0.587783 0
    outer loop
      vertex -47.4301 118.1 2
      vertex -46.8157 118.946 4
      vertex -46.8157 118.946 2
    endloop
  endfacet
  facet normal -0.809018 0.587783 0
    outer loop
      vertex -46.8157 118.946 4
      vertex -47.4301 118.1 2
      vertex -47.4301 118.1 4
    endloop
  endfacet
  facet normal 0.994521 0.104541 0
    outer loop
      vertex 48 116.551 4
      vertex 47.9907 116.64 2
      vertex 47.9907 116.64 4
    endloop
  endfacet
  facet normal 0.994521 0.104541 0
    outer loop
      vertex 47.9907 116.64 2
      vertex 48 116.551 4
      vertex 48 116.551 2
    endloop
  endfacet
  facet normal 0.743146 0.669129 0
    outer loop
      vertex 47.1451 118.539 4
      vertex 46.4457 119.316 2
      vertex 46.4457 119.316 4
    endloop
  endfacet
  facet normal 0.743146 0.669129 0
    outer loop
      vertex 46.4457 119.316 2
      vertex 47.1451 118.539 4
      vertex 47.1451 118.539 2
    endloop
  endfacet
  facet normal 0.951057 0.309016 0
    outer loop
      vertex 47.9907 116.64 4
      vertex 47.6677 117.634 2
      vertex 47.6677 117.634 4
    endloop
  endfacet
  facet normal 0.951057 0.309016 0
    outer loop
      vertex 47.6677 117.634 2
      vertex 47.9907 116.64 4
      vertex 47.9907 116.64 2
    endloop
  endfacet
  facet normal 0.866025 0.500001 0
    outer loop
      vertex 47.6677 117.634 4
      vertex 47.1451 118.539 2
      vertex 47.1451 118.539 4
    endloop
  endfacet
  facet normal 0.866025 0.500001 0
    outer loop
      vertex 47.1451 118.539 2
      vertex 47.6677 117.634 4
      vertex 47.6677 117.634 2
    endloop
  endfacet
  facet normal 0.406736 0.913546 -0
    outer loop
      vertex 45.6 119.93 2
      vertex 44.6451 120.355 4
      vertex 45.6 119.93 4
    endloop
  endfacet
  facet normal 0.406736 0.913546 0
    outer loop
      vertex 44.6451 120.355 4
      vertex 45.6 119.93 2
      vertex 44.6451 120.355 2
    endloop
  endfacet
  facet normal 0.207908 0.978148 -0
    outer loop
      vertex 44.6451 120.355 2
      vertex 43.9642 120.5 4
      vertex 44.6451 120.355 4
    endloop
  endfacet
  facet normal 0.207908 0.978148 0
    outer loop
      vertex 43.9642 120.5 4
      vertex 44.6451 120.355 2
      vertex 43.9642 120.5 2
    endloop
  endfacet
  facet normal 0.587787 0.809016 -0
    outer loop
      vertex 46.4457 119.316 2
      vertex 45.6 119.93 4
      vertex 46.4457 119.316 4
    endloop
  endfacet
  facet normal 0.587787 0.809016 0
    outer loop
      vertex 45.6 119.93 4
      vertex 46.4457 119.316 2
      vertex 45.6 119.93 2
    endloop
  endfacet
  facet normal 0.104532 -0.994521 0
    outer loop
      vertex 44.0514 49.5 2
      vertex 44.1396 49.5093 4
      vertex 44.0514 49.5 4
    endloop
  endfacet
  facet normal 0.104532 -0.994521 0
    outer loop
      vertex 44.1396 49.5093 4
      vertex 44.0514 49.5 2
      vertex 44.1396 49.5093 2
    endloop
  endfacet
  facet normal 0.669131 -0.743145 0
    outer loop
      vertex 46.0389 50.3549 2
      vertex 46.8157 51.0543 4
      vertex 46.0389 50.3549 4
    endloop
  endfacet
  facet normal 0.669131 -0.743145 0
    outer loop
      vertex 46.8157 51.0543 4
      vertex 46.0389 50.3549 2
      vertex 46.8157 51.0543 2
    endloop
  endfacet
  facet normal 0.309017 -0.951057 0
    outer loop
      vertex 44.1396 49.5093 2
      vertex 45.1337 49.8323 4
      vertex 44.1396 49.5093 4
    endloop
  endfacet
  facet normal 0.309017 -0.951057 0
    outer loop
      vertex 45.1337 49.8323 4
      vertex 44.1396 49.5093 2
      vertex 45.1337 49.8323 2
    endloop
  endfacet
  facet normal 0.500001 -0.866025 0
    outer loop
      vertex 45.1337 49.8323 2
      vertex 46.0389 50.3549 4
      vertex 45.1337 49.8323 4
    endloop
  endfacet
  facet normal 0.500001 -0.866025 0
    outer loop
      vertex 46.0389 50.3549 4
      vertex 45.1337 49.8323 2
      vertex 46.0389 50.3549 2
    endloop
  endfacet
  facet normal 0.913546 -0.406736 0
    outer loop
      vertex 47.4301 51.9 4
      vertex 47.8553 52.8549 2
      vertex 47.8553 52.8549 4
    endloop
  endfacet
  facet normal 0.913546 -0.406736 0
    outer loop
      vertex 47.8553 52.8549 2
      vertex 47.4301 51.9 4
      vertex 47.4301 51.9 2
    endloop
  endfacet
  facet normal 0.978147 -0.207913 0
    outer loop
      vertex 47.8553 52.8549 4
      vertex 48 53.5358 2
      vertex 48 53.5358 4
    endloop
  endfacet
  facet normal 0.978147 -0.207913 0
    outer loop
      vertex 48 53.5358 2
      vertex 47.8553 52.8549 4
      vertex 47.8553 52.8549 2
    endloop
  endfacet
  facet normal 0.809016 -0.587787 0
    outer loop
      vertex 46.8157 51.0543 4
      vertex 47.4301 51.9 2
      vertex 47.4301 51.9 4
    endloop
  endfacet
  facet normal 0.809016 -0.587787 0
    outer loop
      vertex 47.4301 51.9 2
      vertex 46.8157 51.0543 4
      vertex 46.8157 51.0543 2
    endloop
  endfacet
  facet normal -0 0 1
    outer loop
      vertex -43.5365 52.0734 4
      vertex -43 49.5274 4
      vertex -42.7865 52.6183 4
    endloop
  endfacet
  facet normal 0 0 1
    outer loop
      vertex -43 49.5274 4
      vertex -43.5365 52.0734 4
      vertex -43.5226 49.5274 4
    endloop
  endfacet
  facet normal 0 0 1
    outer loop
      vertex -44.5451 49.7447 4
      vertex -43.5365 52.0734 4
      vertex -44.4635 52.0734 4
    endloop
  endfacet
  facet normal 0 0 1
    outer loop
      vertex -43.5365 52.0734 4
      vertex -44.5451 49.7447 4
      vertex -43.5226 49.5274 4
    endloop
  endfacet
  facet normal 0 0 1
    outer loop
      vertex -46.3457 50.7843 4
      vertex -44.4635 52.0734 4
      vertex -45.2135 52.6183 4
    endloop
  endfacet
  facet normal 0 0 1
    outer loop
      vertex -47.5677 52.4663 4
      vertex -45.2135 52.6183 4
      vertex -45.5 53.5 4
    endloop
  endfacet
  facet normal 0 0 1
    outer loop
      vertex -44.4635 52.0734 4
      vertex -45.5 50.1699 4
      vertex -44.5451 49.7447 4
    endloop
  endfacet
  facet normal 0 0 1
    outer loop
      vertex -42.7865 54.3817 4
      vertex 42.7865 54.3817 4
      vertex -42.7865 115.618 4
    endloop
  endfacet
  facet normal 0 0 1
    outer loop
      vertex 42.7865 54.3817 4
      vertex -42.7865 54.3817 4
      vertex -42.5 53.5 4
    endloop
  endfacet
  facet normal -0 0 1
    outer loop
      vertex -43.5365 115.073 4
      vertex -42.7865 54.3817 4
      vertex -42.7865 115.618 4
    endloop
  endfacet
  facet normal 0 0 1
    outer loop
      vertex -43.5365 115.073 4
      vertex -43.5365 54.9266 4
      vertex -42.7865 54.3817 4
    endloop
  endfacet
  facet normal -0 0 1
    outer loop
      vertex -44.4635 115.073 4
      vertex -43.5365 54.9266 4
      vertex -43.5365 115.073 4
    endloop
  endfacet
  facet normal 0 0 1
    outer loop
      vertex -44.4635 115.073 4
      vertex -44.4635 54.9266 4
      vertex -43.5365 54.9266 4
    endloop
  endfacet
  facet normal 0 0 1
    outer loop
      vertex -48 116.464 4
      vertex -44.4635 115.073 4
      vertex -45.2135 115.618 4
    endloop
  endfacet
  facet normal 0 0 1
    outer loop
      vertex -44.4635 115.073 4
      vertex -48 54.5 4
      vertex -44.4635 54.9266 4
    endloop
  endfacet
  facet normal -0 0 1
    outer loop
      vertex -48 116.464 4
      vertex -45.2135 115.618 4
      vertex -45.5 116.5 4
    endloop
  endfacet
  facet normal 0 0 1
    outer loop
      vertex -44.4635 54.9266 4
      vertex -48 54.5 4
      vertex -45.2135 54.3817 4
    endloop
  endfacet
  facet normal 0 0 1
    outer loop
      vertex 48 116.551 4
      vertex 44.4635 115.073 4
      vertex 48 53.5358 4
    endloop
  endfacet
  facet normal 0 0 1
    outer loop
      vertex 48 53.5358 4
      vertex 45.2135 54.3817 4
      vertex 45.5 53.5 4
    endloop
  endfacet
  facet normal -0 0 1
    outer loop
      vertex 44.4635 54.9266 4
      vertex 48 53.5358 4
      vertex 44.4635 115.073 4
    endloop
  endfacet
  facet normal 0 0 1
    outer loop
      vertex 48 53.5358 4
      vertex 44.4635 54.9266 4
      vertex 45.2135 54.3817 4
    endloop
  endfacet
  facet normal -0 0 1
    outer loop
      vertex 43.5365 115.073 4
      vertex 44.4635 54.9266 4
      vertex 44.4635 115.073 4
    endloop
  endfacet
  facet normal 0 0 1
    outer loop
      vertex 43.5365 115.073 4
      vertex 43.5365 54.9266 4
      vertex 44.4635 54.9266 4
    endloop
  endfacet
  facet normal 0 0 1
    outer loop
      vertex 42.7865 115.618 4
      vertex 43.5365 54.9266 4
      vertex 43.5365 115.073 4
    endloop
  endfacet
  facet normal 0 0 1
    outer loop
      vertex 42.7865 115.618 4
      vertex 42.7865 54.3817 4
      vertex 43.5365 54.9266 4
    endloop
  endfacet
  facet normal -0 0 1
    outer loop
      vertex -42.5 116.5 4
      vertex 42.7865 115.618 4
      vertex 42.5 116.5 4
    endloop
  endfacet
  facet normal 0 0 1
    outer loop
      vertex -42.7865 115.618 4
      vertex 42.7865 115.618 4
      vertex -42.5 116.5 4
    endloop
  endfacet
  facet normal 0 0 1
    outer loop
      vertex 47.6677 117.634 4
      vertex 45.2135 117.382 4
      vertex 45.5 116.5 4
    endloop
  endfacet
  facet normal 0 0 1
    outer loop
      vertex 44.4635 117.927 4
      vertex 45.6 119.93 4
      vertex 44.6451 120.355 4
    endloop
  endfacet
  facet normal 0 0 1
    outer loop
      vertex 46.4457 119.316 4
      vertex 44.4635 117.927 4
      vertex 45.2135 117.382 4
    endloop
  endfacet
  facet normal 0 0 1
    outer loop
      vertex 43.9642 120.5 4
      vertex 44.4635 117.927 4
      vertex 44.6451 120.355 4
    endloop
  endfacet
  facet normal 0 0 1
    outer loop
      vertex 43.9642 120.5 4
      vertex 43.5365 117.927 4
      vertex 44.4635 117.927 4
    endloop
  endfacet
  facet normal 0 0 1
    outer loop
      vertex 43.9642 120.5 4
      vertex 42.7865 117.382 4
      vertex 43.5365 117.927 4
    endloop
  endfacet
  facet normal 0 0 1
    outer loop
      vertex 42.7865 115.618 4
      vertex -42.7865 115.618 4
      vertex 42.7865 54.3817 4
    endloop
  endfacet
  facet normal 0 0 1
    outer loop
      vertex 42.7865 117.382 4
      vertex -42.5 116.5 4
      vertex 42.5 116.5 4
    endloop
  endfacet
  facet normal 0 0 1
    outer loop
      vertex -42.7865 117.382 4
      vertex 42.7865 117.382 4
      vertex 43.9642 120.5 4
    endloop
  endfacet
  facet normal 0 0 1
    outer loop
      vertex 42.7865 117.382 4
      vertex -42.7865 117.382 4
      vertex -42.5 116.5 4
    endloop
  endfacet
  facet normal -0 0 1
    outer loop
      vertex -44.0514 120.5 4
      vertex -42.7865 117.382 4
      vertex 43.9642 120.5 4
    endloop
  endfacet
  facet normal 0 0 1
    outer loop
      vertex -42.7865 117.382 4
      vertex -44.0514 120.5 4
      vertex -43.5365 117.927 4
    endloop
  endfacet
  facet normal -0 0 1
    outer loop
      vertex -44.1396 120.491 4
      vertex -43.5365 117.927 4
      vertex -44.0514 120.5 4
    endloop
  endfacet
  facet normal 0 0 1
    outer loop
      vertex -44.1396 120.491 4
      vertex -44.4635 117.927 4
      vertex -43.5365 117.927 4
    endloop
  endfacet
  facet normal -0 0 1
    outer loop
      vertex -45.1337 120.168 4
      vertex -44.4635 117.927 4
      vertex -44.1396 120.491 4
    endloop
  endfacet
  facet normal -0 0 1
    outer loop
      vertex -46.0389 119.645 4
      vertex -44.4635 117.927 4
      vertex -45.1337 120.168 4
    endloop
  endfacet
  facet normal 0 0 1
    outer loop
      vertex -44.4635 117.927 4
      vertex -46.0389 119.645 4
      vertex -45.2135 117.382 4
    endloop
  endfacet
  facet normal 0 0 1
    outer loop
      vertex -45.2135 54.3817 4
      vertex -48 54.5 4
      vertex -45.5 53.5 4
    endloop
  endfacet
  facet normal -0 0 1
    outer loop
      vertex -46.8157 118.946 4
      vertex -45.2135 117.382 4
      vertex -46.0389 119.645 4
    endloop
  endfacet
  facet normal -0 0 1
    outer loop
      vertex -47.4301 118.1 4
      vertex -45.2135 117.382 4
      vertex -46.8157 118.946 4
    endloop
  endfacet
  facet normal 0 -0 1
    outer loop
      vertex -47.8907 53.4604 4
      vertex -45.5 53.5 4
      vertex -48 54.5 4
    endloop
  endfacet
  facet normal 0 0 1
    outer loop
      vertex -45.2135 117.382 4
      vertex -47.4301 118.1 4
      vertex -45.5 116.5 4
    endloop
  endfacet
  facet normal 0 0 1
    outer loop
      vertex -44.4635 52.0734 4
      vertex -46.3457 50.7843 4
      vertex -45.5 50.1699 4
    endloop
  endfacet
  facet normal -0 0 1
    outer loop
      vertex -47.8553 117.145 4
      vertex -45.5 116.5 4
      vertex -47.4301 118.1 4
    endloop
  endfacet
  facet normal 0 0 1
    outer loop
      vertex -45.2135 52.6183 4
      vertex -47.0451 51.5611 4
      vertex -46.3457 50.7843 4
    endloop
  endfacet
  facet normal 0 0 1
    outer loop
      vertex -45.5 116.5 4
      vertex -47.8553 117.145 4
      vertex -48 116.464 4
    endloop
  endfacet
  facet normal 0 0 1
    outer loop
      vertex -45.2135 52.6183 4
      vertex -47.5677 52.4663 4
      vertex -47.0451 51.5611 4
    endloop
  endfacet
  facet normal 0 0 1
    outer loop
      vertex -44.4635 115.073 4
      vertex -48 116.464 4
      vertex -48 54.5 4
    endloop
  endfacet
  facet normal 0 0 1
    outer loop
      vertex -45.5 53.5 4
      vertex -47.8907 53.4604 4
      vertex -47.5677 52.4663 4
    endloop
  endfacet
  facet normal 0 0 1
    outer loop
      vertex 45.5 116.5 4
      vertex 48 116.551 4
      vertex 47.9907 116.64 4
    endloop
  endfacet
  facet normal 0 0 1
    outer loop
      vertex 45.2135 115.618 4
      vertex 48 116.551 4
      vertex 45.5 116.5 4
    endloop
  endfacet
  facet normal 0 0 1
    outer loop
      vertex 45.5 116.5 4
      vertex 47.9907 116.64 4
      vertex 47.6677 117.634 4
    endloop
  endfacet
  facet normal 0 0 1
    outer loop
      vertex 44.4635 115.073 4
      vertex 48 116.551 4
      vertex 45.2135 115.618 4
    endloop
  endfacet
  facet normal 0 0 1
    outer loop
      vertex 45.2135 117.382 4
      vertex 47.6677 117.634 4
      vertex 47.1451 118.539 4
    endloop
  endfacet
  facet normal 0 0 1
    outer loop
      vertex 48 53.5358 4
      vertex 45.5 53.5 4
      vertex 47.8553 52.8549 4
    endloop
  endfacet
  facet normal 0 0 1
    outer loop
      vertex 45.2135 117.382 4
      vertex 47.1451 118.539 4
      vertex 46.4457 119.316 4
    endloop
  endfacet
  facet normal 0 0 1
    outer loop
      vertex 47.8553 52.8549 4
      vertex 45.5 53.5 4
      vertex 47.4301 51.9 4
    endloop
  endfacet
  facet normal 0 0 1
    outer loop
      vertex 44.4635 117.927 4
      vertex 46.4457 119.316 4
      vertex 45.6 119.93 4
    endloop
  endfacet
  facet normal -0 0 1
    outer loop
      vertex 45.2135 52.6183 4
      vertex 47.4301 51.9 4
      vertex 45.5 53.5 4
    endloop
  endfacet
  facet normal 0 0 1
    outer loop
      vertex 47.4301 51.9 4
      vertex 45.2135 52.6183 4
      vertex 46.8157 51.0543 4
    endloop
  endfacet
  facet normal 0 0 1
    outer loop
      vertex 46.8157 51.0543 4
      vertex 45.2135 52.6183 4
      vertex 46.0389 50.3549 4
    endloop
  endfacet
  facet normal -0 0 1
    outer loop
      vertex 44.4635 52.0734 4
      vertex 46.0389 50.3549 4
      vertex 45.2135 52.6183 4
    endloop
  endfacet
  facet normal 0 0 1
    outer loop
      vertex 46.0389 50.3549 4
      vertex 44.4635 52.0734 4
      vertex 45.1337 49.8323 4
    endloop
  endfacet
  facet normal 0 0 1
    outer loop
      vertex 44.4635 52.0734 4
      vertex 44.1396 49.5093 4
      vertex 45.1337 49.8323 4
    endloop
  endfacet
  facet normal -0 0 1
    outer loop
      vertex 43.5365 52.0734 4
      vertex 44.1396 49.5093 4
      vertex 44.4635 52.0734 4
    endloop
  endfacet
  facet normal 0 0 1
    outer loop
      vertex 44.1396 49.5093 4
      vertex 43.5365 52.0734 4
      vertex 44.0514 49.5 4
    endloop
  endfacet
  facet normal 0 0 1
    outer loop
      vertex 42.7865 52.6183 4
      vertex 44.0514 49.5 4
      vertex 43.5365 52.0734 4
    endloop
  endfacet
  facet normal 0 0 1
    outer loop
      vertex 42.7865 54.3817 4
      vertex -42.5 53.5 4
      vertex 42.5 53.5 4
    endloop
  endfacet
  facet normal 0 0 1
    outer loop
      vertex -43 49.5 4
      vertex 42.5 53.5 4
      vertex -42.5 53.5 4
    endloop
  endfacet
  facet normal 0 0 1
    outer loop
      vertex 42.5 53.5 4
      vertex -43 49.5 4
      vertex 42.7865 52.6183 4
    endloop
  endfacet
  facet normal 0 0 1
    outer loop
      vertex -43 49.5274 4
      vertex -42.5 53.5 4
      vertex -42.7865 52.6183 4
    endloop
  endfacet
  facet normal 0 0 1
    outer loop
      vertex -42.5 53.5 4
      vertex -43 49.5274 4
      vertex -43 49.5 4
    endloop
  endfacet
  facet normal 0 0 1
    outer loop
      vertex 42.7865 52.6183 4
      vertex -43 49.5 4
      vertex 44.0514 49.5 4
    endloop
  endfacet
  facet normal 1 -0 0
    outer loop
      vertex 48 53.5358 4
      vertex 48 116.551 2
      vertex 48 116.551 4
    endloop
  endfacet
  facet normal 1 0 0
    outer loop
      vertex 48 116.551 2
      vertex 48 53.5358 4
      vertex 48 53.5358 2
    endloop
  endfacet
  facet normal 0 1 -0
    outer loop
      vertex 43.9642 120.5 2
      vertex -44.0514 120.5 4
      vertex 43.9642 120.5 4
    endloop
  endfacet
  facet normal 0 1 0
    outer loop
      vertex -44.0514 120.5 4
      vertex 43.9642 120.5 2
      vertex -44.0514 120.5 2
    endloop
  endfacet
  facet normal -0.951056 -0.309019 0
    outer loop
      vertex -42.5 53.5 1
      vertex -42.7865 54.3817 4
      vertex -42.7865 54.3817 1
    endloop
  endfacet
  facet normal -0.951056 -0.309019 0
    outer loop
      vertex -42.7865 54.3817 4
      vertex -42.5 53.5 1
      vertex -42.5 53.5 4
    endloop
  endfacet
  facet normal 0.951056 -0.309019 0
    outer loop
      vertex -45.5 53.5 4
      vertex -45.2135 54.3817 1
      vertex -45.2135 54.3817 4
    endloop
  endfacet
  facet normal 0.951056 -0.309019 0
    outer loop
      vertex -45.2135 54.3817 1
      vertex -45.5 53.5 4
      vertex -45.5 53.5 1
    endloop
  endfacet
  facet normal 0 -1 0
    outer loop
      vertex -44.4635 54.9266 1
      vertex -43.5365 54.9266 4
      vertex -44.4635 54.9266 4
    endloop
  endfacet
  facet normal 0 -1 -0
    outer loop
      vertex -43.5365 54.9266 4
      vertex -44.4635 54.9266 1
      vertex -43.5365 54.9266 1
    endloop
  endfacet
  facet normal -0.587785 -0.809017 0
    outer loop
      vertex -43.5365 54.9266 1
      vertex -42.7865 54.3817 4
      vertex -43.5365 54.9266 4
    endloop
  endfacet
  facet normal -0.587785 -0.809017 -0
    outer loop
      vertex -42.7865 54.3817 4
      vertex -43.5365 54.9266 1
      vertex -42.7865 54.3817 1
    endloop
  endfacet
  facet normal 0.587785 -0.809017 0
    outer loop
      vertex -45.2135 54.3817 4
      vertex -44.4635 54.9266 1
      vertex -44.4635 54.9266 4
    endloop
  endfacet
  facet normal 0.587785 -0.809017 0
    outer loop
      vertex -44.4635 54.9266 1
      vertex -45.2135 54.3817 4
      vertex -45.2135 54.3817 1
    endloop
  endfacet
  facet normal 0 1 -0
    outer loop
      vertex -43.5365 52.0734 1
      vertex -44.4635 52.0734 4
      vertex -43.5365 52.0734 4
    endloop
  endfacet
  facet normal 0 1 0
    outer loop
      vertex -44.4635 52.0734 4
      vertex -43.5365 52.0734 1
      vertex -44.4635 52.0734 1
    endloop
  endfacet
  facet normal -0.951057 0.309014 0
    outer loop
      vertex -42.7865 52.6183 1
      vertex -42.5 53.5 4
      vertex -42.5 53.5 1
    endloop
  endfacet
  facet normal -0.951056 0.309018 -1.20933e-006
    outer loop
      vertex -42.5 53.5 4
      vertex -42.7865 52.6183 1
      vertex -42.7865 52.6183 4
    endloop
  endfacet
  facet normal -0.587785 0.809017 0
    outer loop
      vertex -42.7865 52.6183 4
      vertex -43.5365 52.0734 1
      vertex -43.5365 52.0734 4
    endloop
  endfacet
  facet normal -0.587785 0.809017 0
    outer loop
      vertex -43.5365 52.0734 1
      vertex -42.7865 52.6183 4
      vertex -42.7865 52.6183 1
    endloop
  endfacet
  facet normal 0.587785 0.809017 -0
    outer loop
      vertex -44.4635 52.0734 1
      vertex -45.2135 52.6183 4
      vertex -44.4635 52.0734 4
    endloop
  endfacet
  facet normal 0.587785 0.809017 0
    outer loop
      vertex -45.2135 52.6183 4
      vertex -44.4635 52.0734 1
      vertex -45.2135 52.6183 1
    endloop
  endfacet
  facet normal 0.951056 0.309018 0
    outer loop
      vertex -45.2135 52.6183 4
      vertex -45.5 53.5 1
      vertex -45.5 53.5 4
    endloop
  endfacet
  facet normal 0.951056 0.309018 0
    outer loop
      vertex -45.5 53.5 1
      vertex -45.2135 52.6183 4
      vertex -45.2135 52.6183 1
    endloop
  endfacet
  facet normal -0.951056 -0.309019 0
    outer loop
      vertex -42.5 116.5 1
      vertex -42.7865 117.382 4
      vertex -42.7865 117.382 1
    endloop
  endfacet
  facet normal -0.951056 -0.309019 0
    outer loop
      vertex -42.7865 117.382 4
      vertex -42.5 116.5 1
      vertex -42.5 116.5 4
    endloop
  endfacet
  facet normal 0.951056 -0.309019 0
    outer loop
      vertex -45.5 116.5 4
      vertex -45.2135 117.382 1
      vertex -45.2135 117.382 4
    endloop
  endfacet
  facet normal 0.951056 -0.309019 0
    outer loop
      vertex -45.2135 117.382 1
      vertex -45.5 116.5 4
      vertex -45.5 116.5 1
    endloop
  endfacet
  facet normal 0 -1 0
    outer loop
      vertex -44.4635 117.927 1
      vertex -43.5365 117.927 4
      vertex -44.4635 117.927 4
    endloop
  endfacet
  facet normal 0 -1 -0
    outer loop
      vertex -43.5365 117.927 4
      vertex -44.4635 117.927 1
      vertex -43.5365 117.927 1
    endloop
  endfacet
  facet normal -0.587785 -0.809017 0
    outer loop
      vertex -43.5365 117.927 1
      vertex -42.7865 117.382 4
      vertex -43.5365 117.927 4
    endloop
  endfacet
  facet normal -0.587785 -0.809017 -0
    outer loop
      vertex -42.7865 117.382 4
      vertex -43.5365 117.927 1
      vertex -42.7865 117.382 1
    endloop
  endfacet
  facet normal 0.587785 -0.809017 0
    outer loop
      vertex -45.2135 117.382 4
      vertex -44.4635 117.927 1
      vertex -44.4635 117.927 4
    endloop
  endfacet
  facet normal 0.587785 -0.809017 0
    outer loop
      vertex -44.4635 117.927 1
      vertex -45.2135 117.382 4
      vertex -45.2135 117.382 1
    endloop
  endfacet
  facet normal 0 1 -0
    outer loop
      vertex -43.5365 115.073 1
      vertex -44.4635 115.073 4
      vertex -43.5365 115.073 4
    endloop
  endfacet
  facet normal 0 1 0
    outer loop
      vertex -44.4635 115.073 4
      vertex -43.5365 115.073 1
      vertex -44.4635 115.073 1
    endloop
  endfacet
  facet normal -0.951057 0.309016 0
    outer loop
      vertex -42.7865 115.618 1
      vertex -42.5 116.5 4
      vertex -42.5 116.5 1
    endloop
  endfacet
  facet normal -0.951056 0.309019 -1.20933e-006
    outer loop
      vertex -42.5 116.5 4
      vertex -42.7865 115.618 1
      vertex -42.7865 115.618 4
    endloop
  endfacet
  facet normal 0.951056 0.309019 0
    outer loop
      vertex -45.2135 115.618 4
      vertex -45.5 116.5 1
      vertex -45.5 116.5 4
    endloop
  endfacet
  facet normal 0.951056 0.309019 0
    outer loop
      vertex -45.5 116.5 1
      vertex -45.2135 115.618 4
      vertex -45.2135 115.618 1
    endloop
  endfacet
  facet normal -0.587785 0.809017 0
    outer loop
      vertex -42.7865 115.618 4
      vertex -43.5365 115.073 1
      vertex -43.5365 115.073 4
    endloop
  endfacet
  facet normal -0.587785 0.809017 0
    outer loop
      vertex -43.5365 115.073 1
      vertex -42.7865 115.618 4
      vertex -42.7865 115.618 1
    endloop
  endfacet
  facet normal 0.587785 0.809017 -0
    outer loop
      vertex -44.4635 115.073 1
      vertex -45.2135 115.618 4
      vertex -44.4635 115.073 4
    endloop
  endfacet
  facet normal 0.587785 0.809017 0
    outer loop
      vertex -45.2135 115.618 4
      vertex -44.4635 115.073 1
      vertex -45.2135 115.618 1
    endloop
  endfacet
  facet normal -0.951056 -0.309019 0
    outer loop
      vertex 45.5 53.5 1
      vertex 45.2135 54.3817 4
      vertex 45.2135 54.3817 1
    endloop
  endfacet
  facet normal -0.951056 -0.309019 0
    outer loop
      vertex 45.2135 54.3817 4
      vertex 45.5 53.5 1
      vertex 45.5 53.5 4
    endloop
  endfacet
  facet normal -0.587785 0.809017 0
    outer loop
      vertex 45.2135 52.6183 4
      vertex 44.4635 52.0734 1
      vertex 44.4635 52.0734 4
    endloop
  endfacet
  facet normal -0.587785 0.809017 0
    outer loop
      vertex 44.4635 52.0734 1
      vertex 45.2135 52.6183 4
      vertex 45.2135 52.6183 1
    endloop
  endfacet
  facet normal 0.587785 -0.809017 0
    outer loop
      vertex 42.7865 54.3817 4
      vertex 43.5365 54.9266 1
      vertex 43.5365 54.9266 4
    endloop
  endfacet
  facet normal 0.587785 -0.809017 0
    outer loop
      vertex 43.5365 54.9266 1
      vertex 42.7865 54.3817 4
      vertex 42.7865 54.3817 1
    endloop
  endfacet
  facet normal -0.587785 -0.809017 0
    outer loop
      vertex 44.4635 54.9266 1
      vertex 45.2135 54.3817 4
      vertex 44.4635 54.9266 4
    endloop
  endfacet
  facet normal -0.587785 -0.809017 -0
    outer loop
      vertex 45.2135 54.3817 4
      vertex 44.4635 54.9266 1
      vertex 45.2135 54.3817 1
    endloop
  endfacet
  facet normal 0.951056 -0.309019 0
    outer loop
      vertex 42.5 53.5 4
      vertex 42.7865 54.3817 1
      vertex 42.7865 54.3817 4
    endloop
  endfacet
  facet normal 0.951056 -0.309019 0
    outer loop
      vertex 42.7865 54.3817 1
      vertex 42.5 53.5 4
      vertex 42.5 53.5 1
    endloop
  endfacet
  facet normal 0 -1 0
    outer loop
      vertex 43.5365 54.9266 1
      vertex 44.4635 54.9266 4
      vertex 43.5365 54.9266 4
    endloop
  endfacet
  facet normal 0 -1 -0
    outer loop
      vertex 44.4635 54.9266 4
      vertex 43.5365 54.9266 1
      vertex 44.4635 54.9266 1
    endloop
  endfacet
  facet normal 0.951056 0.309018 0
    outer loop
      vertex 42.7865 52.6183 4
      vertex 42.5 53.5 1
      vertex 42.5 53.5 4
    endloop
  endfacet
  facet normal 0.951057 0.309014 -1.20933e-006
    outer loop
      vertex 42.5 53.5 1
      vertex 42.7865 52.6183 4
      vertex 42.7865 52.6183 1
    endloop
  endfacet
  facet normal 0.587785 0.809017 -0
    outer loop
      vertex 43.5365 52.0734 1
      vertex 42.7865 52.6183 4
      vertex 43.5365 52.0734 4
    endloop
  endfacet
  facet normal 0.587785 0.809017 0
    outer loop
      vertex 42.7865 52.6183 4
      vertex 43.5365 52.0734 1
      vertex 42.7865 52.6183 1
    endloop
  endfacet
  facet normal -0.951056 0.309018 0
    outer loop
      vertex 45.2135 52.6183 1
      vertex 45.5 53.5 4
      vertex 45.5 53.5 1
    endloop
  endfacet
  facet normal -0.951056 0.309018 0
    outer loop
      vertex 45.5 53.5 4
      vertex 45.2135 52.6183 1
      vertex 45.2135 52.6183 4
    endloop
  endfacet
  facet normal 0 1 -0
    outer loop
      vertex 44.4635 52.0734 1
      vertex 43.5365 52.0734 4
      vertex 44.4635 52.0734 4
    endloop
  endfacet
  facet normal 0 1 0
    outer loop
      vertex 43.5365 52.0734 4
      vertex 44.4635 52.0734 1
      vertex 43.5365 52.0734 1
    endloop
  endfacet
  facet normal -0.951056 -0.309019 0
    outer loop
      vertex 45.5 116.5 1
      vertex 45.2135 117.382 4
      vertex 45.2135 117.382 1
    endloop
  endfacet
  facet normal -0.951056 -0.309019 0
    outer loop
      vertex 45.2135 117.382 4
      vertex 45.5 116.5 1
      vertex 45.5 116.5 4
    endloop
  endfacet
  facet normal -0.587785 0.809017 0
    outer loop
      vertex 45.2135 115.618 4
      vertex 44.4635 115.073 1
      vertex 44.4635 115.073 4
    endloop
  endfacet
  facet normal -0.587785 0.809017 0
    outer loop
      vertex 44.4635 115.073 1
      vertex 45.2135 115.618 4
      vertex 45.2135 115.618 1
    endloop
  endfacet
  facet normal 0.587785 -0.809017 0
    outer loop
      vertex 42.7865 117.382 4
      vertex 43.5365 117.927 1
      vertex 43.5365 117.927 4
    endloop
  endfacet
  facet normal 0.587785 -0.809017 0
    outer loop
      vertex 43.5365 117.927 1
      vertex 42.7865 117.382 4
      vertex 42.7865 117.382 1
    endloop
  endfacet
  facet normal -0.587785 -0.809017 0
    outer loop
      vertex 44.4635 117.927 1
      vertex 45.2135 117.382 4
      vertex 44.4635 117.927 4
    endloop
  endfacet
  facet normal -0.587785 -0.809017 -0
    outer loop
      vertex 45.2135 117.382 4
      vertex 44.4635 117.927 1
      vertex 45.2135 117.382 1
    endloop
  endfacet
  facet normal 0.951056 -0.309019 0
    outer loop
      vertex 42.5 116.5 4
      vertex 42.7865 117.382 1
      vertex 42.7865 117.382 4
    endloop
  endfacet
  facet normal 0.951056 -0.309019 0
    outer loop
      vertex 42.7865 117.382 1
      vertex 42.5 116.5 4
      vertex 42.5 116.5 1
    endloop
  endfacet
  facet normal 0 -1 0
    outer loop
      vertex 43.5365 117.927 1
      vertex 44.4635 117.927 4
      vertex 43.5365 117.927 4
    endloop
  endfacet
  facet normal 0 -1 -0
    outer loop
      vertex 44.4635 117.927 4
      vertex 43.5365 117.927 1
      vertex 44.4635 117.927 1
    endloop
  endfacet
  facet normal 0.951056 0.309019 0
    outer loop
      vertex 42.7865 115.618 4
      vertex 42.5 116.5 1
      vertex 42.5 116.5 4
    endloop
  endfacet
  facet normal 0.951057 0.309016 -1.20933e-006
    outer loop
      vertex 42.5 116.5 1
      vertex 42.7865 115.618 4
      vertex 42.7865 115.618 1
    endloop
  endfacet
  facet normal -0.951056 0.309019 0
    outer loop
      vertex 45.2135 115.618 1
      vertex 45.5 116.5 4
      vertex 45.5 116.5 1
    endloop
  endfacet
  facet normal -0.951056 0.309019 0
    outer loop
      vertex 45.5 116.5 4
      vertex 45.2135 115.618 1
      vertex 45.2135 115.618 4
    endloop
  endfacet
  facet normal 0 1 -0
    outer loop
      vertex 44.4635 115.073 1
      vertex 43.5365 115.073 4
      vertex 44.4635 115.073 4
    endloop
  endfacet
  facet normal 0 1 0
    outer loop
      vertex 43.5365 115.073 4
      vertex 44.4635 115.073 1
      vertex 43.5365 115.073 1
    endloop
  endfacet
  facet normal 0.587785 0.809017 -0
    outer loop
      vertex 43.5365 115.073 1
      vertex 42.7865 115.618 4
      vertex 43.5365 115.073 4
    endloop
  endfacet
  facet normal 0.587785 0.809017 0
    outer loop
      vertex 42.7865 115.618 4
      vertex 43.5365 115.073 1
      vertex 42.7865 115.618 1
    endloop
  endfacet
  facet normal -0.545905 -0.177375 -0.818857
    outer loop
      vertex -42.5 53.5 1
      vertex -41.5729 55.2634 0
      vertex -41 53.5 0
    endloop
  endfacet
  facet normal -0.545903 -0.177376 -0.818857
    outer loop
      vertex -41.5729 55.2634 0
      vertex -42.5 53.5 1
      vertex -42.7865 54.3817 1
    endloop
  endfacet
  facet normal 0.545904 0.177375 -0.818857
    outer loop
      vertex -46.4271 51.7366 0
      vertex -45.5 53.5 1
      vertex -45.2135 52.6183 1
    endloop
  endfacet
  facet normal 0.545905 0.177375 -0.818857
    outer loop
      vertex -45.5 53.5 1
      vertex -46.4271 51.7366 0
      vertex -47 53.5 0
    endloop
  endfacet
  facet normal 0.337387 -0.464374 -0.818857
    outer loop
      vertex -45.2135 54.3817 1
      vertex -44.9271 56.3532 0
      vertex -44.4635 54.9266 1
    endloop
  endfacet
  facet normal 0.337387 -0.464374 -0.818857
    outer loop
      vertex -44.9271 56.3532 0
      vertex -45.2135 54.3817 1
      vertex -46.4271 55.2634 0
    endloop
  endfacet
  facet normal 0 0.573998 -0.818857
    outer loop
      vertex -43.0729 50.6468 0
      vertex -44.4635 52.0734 1
      vertex -43.5365 52.0734 1
    endloop
  endfacet
  facet normal 0 0.573998 -0.818857
    outer loop
      vertex -44.4635 52.0734 1
      vertex -43.0729 50.6468 0
      vertex -44.9271 50.6468 0
    endloop
  endfacet
  facet normal 0.545903 -0.177376 -0.818857
    outer loop
      vertex -45.5 53.5 1
      vertex -46.4271 55.2634 0
      vertex -45.2135 54.3817 1
    endloop
  endfacet
  facet normal 0.545905 -0.177375 -0.818857
    outer loop
      vertex -46.4271 55.2634 0
      vertex -45.5 53.5 1
      vertex -47 53.5 0
    endloop
  endfacet
  facet normal 0 -0.573998 -0.818857
    outer loop
      vertex -44.4635 54.9266 1
      vertex -43.0729 56.3532 0
      vertex -43.5365 54.9266 1
    endloop
  endfacet
  facet normal -0 -0.573998 -0.818857
    outer loop
      vertex -43.0729 56.3532 0
      vertex -44.4635 54.9266 1
      vertex -44.9271 56.3532 0
    endloop
  endfacet
  facet normal -0.337387 -0.464374 -0.818857
    outer loop
      vertex -42.7865 54.3817 1
      vertex -43.0729 56.3532 0
      vertex -41.5729 55.2634 0
    endloop
  endfacet
  facet normal -0.337387 -0.464374 -0.818857
    outer loop
      vertex -43.0729 56.3532 0
      vertex -42.7865 54.3817 1
      vertex -43.5365 54.9266 1
    endloop
  endfacet
  facet normal 0.337387 0.464374 -0.818857
    outer loop
      vertex -44.9271 50.6468 0
      vertex -45.2135 52.6183 1
      vertex -44.4635 52.0734 1
    endloop
  endfacet
  facet normal 0.337388 0.464374 -0.818857
    outer loop
      vertex -45.2135 52.6183 1
      vertex -44.9271 50.6468 0
      vertex -46.4271 51.7366 0
    endloop
  endfacet
  facet normal -0.545905 0.177375 -0.818857
    outer loop
      vertex -41.5729 51.7366 0
      vertex -42.5 53.5 1
      vertex -41 53.5 0
    endloop
  endfacet
  facet normal -0.545906 0.177374 -0.818856
    outer loop
      vertex -42.5 53.5 1
      vertex -41.5729 51.7366 0
      vertex -42.7865 52.6183 1
    endloop
  endfacet
  facet normal -0.337388 0.464374 -0.818856
    outer loop
      vertex -43.0729 50.6468 0
      vertex -42.7865 52.6183 1
      vertex -41.5729 51.7366 0
    endloop
  endfacet
  facet normal -0.337386 0.464374 -0.818857
    outer loop
      vertex -43.5365 52.0734 1
      vertex -42.7865 52.6183 1
      vertex -43.0729 50.6468 0
    endloop
  endfacet
  facet normal -0.545904 -0.177375 -0.818857
    outer loop
      vertex -42.5 116.5 1
      vertex -41.5729 118.263 0
      vertex -41 116.5 0
    endloop
  endfacet
  facet normal -0.545903 -0.177376 -0.818857
    outer loop
      vertex -41.5729 118.263 0
      vertex -42.5 116.5 1
      vertex -42.7865 117.382 1
    endloop
  endfacet
  facet normal 0.545903 0.177376 -0.818858
    outer loop
      vertex -46.4271 114.737 0
      vertex -45.5 116.5 1
      vertex -45.2135 115.618 1
    endloop
  endfacet
  facet normal 0.545905 0.177375 -0.818857
    outer loop
      vertex -45.5 116.5 1
      vertex -46.4271 114.737 0
      vertex -47 116.5 0
    endloop
  endfacet
  facet normal 0.337387 -0.464373 -0.818858
    outer loop
      vertex -45.2135 117.382 1
      vertex -44.9271 119.353 0
      vertex -44.4635 117.927 1
    endloop
  endfacet
  facet normal 0.337389 -0.464373 -0.818857
    outer loop
      vertex -44.9271 119.353 0
      vertex -45.2135 117.382 1
      vertex -46.4271 118.263 0
    endloop
  endfacet
  facet normal 0 0.573997 -0.818858
    outer loop
      vertex -43.0729 113.647 0
      vertex -44.4635 115.073 1
      vertex -43.5365 115.073 1
    endloop
  endfacet
  facet normal 0 0.573997 -0.818858
    outer loop
      vertex -44.4635 115.073 1
      vertex -43.0729 113.647 0
      vertex -44.9271 113.647 0
    endloop
  endfacet
  facet normal 0.545904 -0.177376 -0.818857
    outer loop
      vertex -45.5 116.5 1
      vertex -46.4271 118.263 0
      vertex -45.2135 117.382 1
    endloop
  endfacet
  facet normal 0.545904 -0.177375 -0.818857
    outer loop
      vertex -46.4271 118.263 0
      vertex -45.5 116.5 1
      vertex -47 116.5 0
    endloop
  endfacet
  facet normal 0 -0.573997 -0.818858
    outer loop
      vertex -44.4635 117.927 1
      vertex -43.0729 119.353 0
      vertex -43.5365 117.927 1
    endloop
  endfacet
  facet normal -0 -0.573997 -0.818858
    outer loop
      vertex -43.0729 119.353 0
      vertex -44.4635 117.927 1
      vertex -44.9271 119.353 0
    endloop
  endfacet
  facet normal -0.337389 -0.464373 -0.818857
    outer loop
      vertex -42.7865 117.382 1
      vertex -43.0729 119.353 0
      vertex -41.5729 118.263 0
    endloop
  endfacet
  facet normal -0.337387 -0.464373 -0.818858
    outer loop
      vertex -43.0729 119.353 0
      vertex -42.7865 117.382 1
      vertex -43.5365 117.927 1
    endloop
  endfacet
  facet normal 0.337387 0.464373 -0.818858
    outer loop
      vertex -44.9271 113.647 0
      vertex -45.2135 115.618 1
      vertex -44.4635 115.073 1
    endloop
  endfacet
  facet normal 0.337387 0.464373 -0.818858
    outer loop
      vertex -45.2135 115.618 1
      vertex -44.9271 113.647 0
      vertex -46.4271 114.737 0
    endloop
  endfacet
  facet normal -0.545905 0.177375 -0.818857
    outer loop
      vertex -41.5729 114.737 0
      vertex -42.5 116.5 1
      vertex -41 116.5 0
    endloop
  endfacet
  facet normal -0.545905 0.177374 -0.818857
    outer loop
      vertex -42.5 116.5 1
      vertex -41.5729 114.737 0
      vertex -42.7865 115.618 1
    endloop
  endfacet
  facet normal -0.337387 0.464373 -0.818857
    outer loop
      vertex -43.0729 113.647 0
      vertex -42.7865 115.618 1
      vertex -41.5729 114.737 0
    endloop
  endfacet
  facet normal -0.337385 0.464373 -0.818858
    outer loop
      vertex -43.5365 115.073 1
      vertex -42.7865 115.618 1
      vertex -43.0729 113.647 0
    endloop
  endfacet
  facet normal -0.545905 -0.177375 -0.818857
    outer loop
      vertex 45.5 53.5 1
      vertex 46.4271 55.2634 0
      vertex 47 53.5 0
    endloop
  endfacet
  facet normal -0.545903 -0.177376 -0.818857
    outer loop
      vertex 46.4271 55.2634 0
      vertex 45.5 53.5 1
      vertex 45.2135 54.3817 1
    endloop
  endfacet
  facet normal 0.337386 0.464374 -0.818857
    outer loop
      vertex 42.7865 52.6183 1
      vertex 43.5365 52.0734 1
      vertex 43.0729 50.6468 0
    endloop
  endfacet
  facet normal 0.337388 0.464374 -0.818856
    outer loop
      vertex 42.7865 52.6183 1
      vertex 43.0729 50.6468 0
      vertex 41.5729 51.7366 0
    endloop
  endfacet
  facet normal 0.337387 -0.464374 -0.818857
    outer loop
      vertex 42.7865 54.3817 1
      vertex 43.0729 56.3532 0
      vertex 43.5365 54.9266 1
    endloop
  endfacet
  facet normal 0.337387 -0.464374 -0.818857
    outer loop
      vertex 43.0729 56.3532 0
      vertex 42.7865 54.3817 1
      vertex 41.5729 55.2634 0
    endloop
  endfacet
  facet normal -0.337388 0.464374 -0.818857
    outer loop
      vertex 44.9271 50.6468 0
      vertex 45.2135 52.6183 1
      vertex 46.4271 51.7366 0
    endloop
  endfacet
  facet normal -0.337387 0.464374 -0.818857
    outer loop
      vertex 45.2135 52.6183 1
      vertex 44.9271 50.6468 0
      vertex 44.4635 52.0734 1
    endloop
  endfacet
  facet normal 0.545903 -0.177376 -0.818857
    outer loop
      vertex 42.5 53.5 1
      vertex 41.5729 55.2634 0
      vertex 42.7865 54.3817 1
    endloop
  endfacet
  facet normal 0.545905 -0.177375 -0.818857
    outer loop
      vertex 41.5729 55.2634 0
      vertex 42.5 53.5 1
      vertex 41 53.5 0
    endloop
  endfacet
  facet normal 1.05297e-007 -0.573998 -0.818857
    outer loop
      vertex 43.5365 54.9266 1
      vertex 44.9271 56.3532 0
      vertex 44.4635 54.9266 1
    endloop
  endfacet
  facet normal -0 -0.573998 -0.818857
    outer loop
      vertex 44.9271 56.3532 0
      vertex 43.5365 54.9266 1
      vertex 43.0729 56.3532 0
    endloop
  endfacet
  facet normal -0.337387 -0.464374 -0.818857
    outer loop
      vertex 45.2135 54.3817 1
      vertex 44.9271 56.3532 0
      vertex 46.4271 55.2634 0
    endloop
  endfacet
  facet normal -0.337387 -0.464374 -0.818857
    outer loop
      vertex 44.9271 56.3532 0
      vertex 45.2135 54.3817 1
      vertex 44.4635 54.9266 1
    endloop
  endfacet
  facet normal 0 0.573998 -0.818857
    outer loop
      vertex 44.9271 50.6468 0
      vertex 43.5365 52.0734 1
      vertex 44.4635 52.0734 1
    endloop
  endfacet
  facet normal 0 0.573998 -0.818857
    outer loop
      vertex 43.5365 52.0734 1
      vertex 44.9271 50.6468 0
      vertex 43.0729 50.6468 0
    endloop
  endfacet
  facet normal -0.545905 0.177375 -0.818857
    outer loop
      vertex 46.4271 51.7366 0
      vertex 45.5 53.5 1
      vertex 47 53.5 0
    endloop
  endfacet
  facet normal -0.545904 0.177375 -0.818857
    outer loop
      vertex 45.5 53.5 1
      vertex 46.4271 51.7366 0
      vertex 45.2135 52.6183 1
    endloop
  endfacet
  facet normal 0.545906 0.177374 -0.818856
    outer loop
      vertex 41.5729 51.7366 0
      vertex 42.5 53.5 1
      vertex 42.7865 52.6183 1
    endloop
  endfacet
  facet normal 0.545905 0.177375 -0.818857
    outer loop
      vertex 42.5 53.5 1
      vertex 41.5729 51.7366 0
      vertex 41 53.5 0
    endloop
  endfacet
  facet normal -0.545904 -0.177375 -0.818857
    outer loop
      vertex 45.5 116.5 1
      vertex 46.4271 118.263 0
      vertex 47 116.5 0
    endloop
  endfacet
  facet normal -0.545904 -0.177376 -0.818857
    outer loop
      vertex 46.4271 118.263 0
      vertex 45.5 116.5 1
      vertex 45.2135 117.382 1
    endloop
  endfacet
  facet normal 0.337385 0.464373 -0.818858
    outer loop
      vertex 42.7865 115.618 1
      vertex 43.5365 115.073 1
      vertex 43.0729 113.647 0
    endloop
  endfacet
  facet normal 0.337387 0.464373 -0.818857
    outer loop
      vertex 42.7865 115.618 1
      vertex 43.0729 113.647 0
      vertex 41.5729 114.737 0
    endloop
  endfacet
  facet normal 0.337387 -0.464373 -0.818858
    outer loop
      vertex 42.7865 117.382 1
      vertex 43.0729 119.353 0
      vertex 43.5365 117.927 1
    endloop
  endfacet
  facet normal 0.337389 -0.464373 -0.818857
    outer loop
      vertex 43.0729 119.353 0
      vertex 42.7865 117.382 1
      vertex 41.5729 118.263 0
    endloop
  endfacet
  facet normal -0.337387 0.464373 -0.818858
    outer loop
      vertex 44.9271 113.647 0
      vertex 45.2135 115.618 1
      vertex 46.4271 114.737 0
    endloop
  endfacet
  facet normal -0.337387 0.464373 -0.818858
    outer loop
      vertex 45.2135 115.618 1
      vertex 44.9271 113.647 0
      vertex 44.4635 115.073 1
    endloop
  endfacet
  facet normal 0.545903 -0.177376 -0.818857
    outer loop
      vertex 42.5 116.5 1
      vertex 41.5729 118.263 0
      vertex 42.7865 117.382 1
    endloop
  endfacet
  facet normal 0.545904 -0.177375 -0.818857
    outer loop
      vertex 41.5729 118.263 0
      vertex 42.5 116.5 1
      vertex 41 116.5 0
    endloop
  endfacet
  facet normal 1.05297e-007 -0.573997 -0.818858
    outer loop
      vertex 43.5365 117.927 1
      vertex 44.9271 119.353 0
      vertex 44.4635 117.927 1
    endloop
  endfacet
  facet normal -0 -0.573997 -0.818858
    outer loop
      vertex 44.9271 119.353 0
      vertex 43.5365 117.927 1
      vertex 43.0729 119.353 0
    endloop
  endfacet
  facet normal -0.337389 -0.464373 -0.818857
    outer loop
      vertex 45.2135 117.382 1
      vertex 44.9271 119.353 0
      vertex 46.4271 118.263 0
    endloop
  endfacet
  facet normal -0.337387 -0.464373 -0.818858
    outer loop
      vertex 44.9271 119.353 0
      vertex 45.2135 117.382 1
      vertex 44.4635 117.927 1
    endloop
  endfacet
  facet normal 0 0.573997 -0.818858
    outer loop
      vertex 44.9271 113.647 0
      vertex 43.5365 115.073 1
      vertex 44.4635 115.073 1
    endloop
  endfacet
  facet normal 0 0.573997 -0.818858
    outer loop
      vertex 43.5365 115.073 1
      vertex 44.9271 113.647 0
      vertex 43.0729 113.647 0
    endloop
  endfacet
  facet normal -0.545905 0.177375 -0.818857
    outer loop
      vertex 46.4271 114.737 0
      vertex 45.5 116.5 1
      vertex 47 116.5 0
    endloop
  endfacet
  facet normal -0.545903 0.177376 -0.818858
    outer loop
      vertex 45.5 116.5 1
      vertex 46.4271 114.737 0
      vertex 45.2135 115.618 1
    endloop
  endfacet
  facet normal 0.545905 0.177374 -0.818857
    outer loop
      vertex 41.5729 114.737 0
      vertex 42.5 116.5 1
      vertex 42.7865 115.618 1
    endloop
  endfacet
  facet normal 0.545905 0.177375 -0.818857
    outer loop
      vertex 42.5 116.5 1
      vertex 41.5729 114.737 0
      vertex 41 116.5 0
    endloop
  endfacet
endsolid OpenSCAD_Model
